<?xml version="1.0" standalone="no"?>
<!DOCTYPE svg PUBLIC "-//W3C//DTD SVG 20010904//EN"
 "http://www.w3.org/TR/2001/REC-SVG-20010904/DTD/svg10.dtd">
<svg version="1.0" xmlns="http://www.w3.org/2000/svg"
 width="900.000000pt" height="561.000000pt" viewBox="0 0 900.000000 561.000000"
 preserveAspectRatio="xMidYMid meet">

<g transform="translate(0.000000,561.000000) scale(0.100000,-0.100000)"
fill="#000000" stroke="none">
<path d="M4447 5169 c-15 -17 -27 -35 -27 -41 0 -5 -13 -21 -30 -35 -36 -29
-38 -54 -8 -88 16 -19 27 -23 47 -18 26 6 26 6 7 -15 -10 -12 -16 -30 -13 -41
6 -23 -22 -36 -98 -46 -27 -4 -66 -15 -85 -26 -19 -10 -53 -23 -76 -29 -23 -5
-56 -21 -75 -34 -19 -14 -47 -32 -64 -41 -49 -26 -124 -143 -125 -194 0 -30
47 -185 71 -233 11 -21 19 -55 19 -76 0 -22 6 -45 14 -51 8 -7 18 -41 22 -79
4 -37 14 -77 22 -90 9 -14 13 -35 9 -57 -6 -37 11 -65 39 -65 8 0 14 -3 14 -7
0 -16 -81 -140 -108 -166 l-30 -28 -22 38 c-13 21 -57 73 -98 115 l-76 77 48
21 c26 11 59 23 73 26 13 4 27 12 29 19 9 22 -62 145 -82 145 -5 0 -36 -27
-69 -60 l-61 -60 -17 29 -17 29 50 17 c27 9 50 19 50 21 0 13 -45 92 -63 112
-27 29 -32 28 -65 -9 l-28 -32 -14 57 c-7 31 -17 59 -21 62 -20 12 -159 -80
-159 -105 0 -9 21 -34 47 -57 l46 -40 -46 -14 c-56 -15 -59 -28 -17 -93 41
-66 56 -69 98 -21 32 37 34 38 48 20 8 -11 14 -23 14 -27 0 -4 -35 -22 -77
-39 -43 -18 -82 -36 -87 -41 -16 -15 49 -131 81 -143 9 -4 36 16 75 56 71 71
68 73 119 -51 17 -42 44 -93 60 -113 16 -20 29 -41 29 -45 0 -10 -93 -65 -199
-118 -73 -36 -75 -37 -107 -21 -32 14 -33 17 -22 46 18 53 5 178 -25 237 -29
57 -49 67 -147 79 -30 3 -86 20 -124 36 -124 54 -204 20 -292 -122 -154 -249
-139 -215 -139 -311 0 -82 2 -89 31 -126 19 -23 50 -46 82 -59 l51 -20 -64
-57 c-81 -72 -125 -155 -125 -234 0 -47 4 -59 30 -85 27 -26 36 -30 69 -25
l38 5 7 -60 c6 -62 17 -90 47 -123 17 -19 17 -24 -9 -127 -18 -75 -31 -108
-41 -108 -22 0 -181 -171 -181 -194 1 -12 -27 -76 -62 -144 l-63 -123 34 -29
c19 -17 59 -40 88 -52 29 -12 53 -26 53 -32 0 -13 -48 -202 -84 -331 -32 -114
-35 -226 -7 -271 11 -17 39 -41 63 -52 57 -28 185 -46 272 -38 63 6 68 5 61
-11 -4 -10 -19 -51 -33 -90 -21 -61 -23 -77 -14 -99 12 -25 14 -25 75 -19 87
9 119 -6 198 -96 129 -147 153 -163 249 -163 59 -1 68 -4 96 -33 39 -40 84
-52 154 -42 30 4 62 8 72 8 9 1 32 -21 52 -49 40 -56 59 -61 155 -38 49 11 52
10 75 -15 31 -34 69 -43 122 -29 41 11 45 10 93 -23 89 -59 193 -59 282 1 46
31 57 34 94 28 43 -6 124 19 139 44 4 7 22 5 53 -4 59 -18 87 -9 154 47 l50
41 69 -10 c90 -13 130 -2 169 45 27 33 35 37 70 34 66 -4 123 29 234 137 118
114 147 132 217 132 69 0 79 22 56 114 -25 101 -26 99 47 91 36 -4 96 -2 136
4 130 20 191 68 211 166 15 72 4 144 -55 350 -25 87 -45 162 -45 166 0 3 43
27 95 52 76 37 95 50 95 68 0 11 -25 68 -56 125 -30 57 -57 117 -59 134 -5 37
-32 76 -106 152 -38 40 -63 58 -80 58 -23 0 -26 6 -48 113 l-23 113 21 35 c12
20 24 63 27 98 7 61 8 63 33 58 90 -17 141 104 89 212 -12 25 -52 75 -89 111
l-66 65 51 25 c99 50 139 158 103 281 -17 56 -19 60 -130 206 -101 133 -165
162 -273 123 -32 -12 -96 -30 -141 -40 -109 -25 -121 -32 -150 -97 -28 -61
-36 -181 -15 -220 11 -19 9 -24 -7 -33 -11 -5 -30 -10 -43 -10 -39 1 -155 46
-228 89 l-69 41 29 68 c20 48 34 68 49 70 19 3 39 38 27 49 -3 3 3 18 14 33
11 16 20 34 20 42 0 7 9 19 20 26 12 7 20 23 20 41 0 35 28 46 68 25 15 -8 33
-14 41 -14 8 0 22 -7 32 -16 25 -23 44 -12 69 36 13 26 33 46 52 55 31 13 31
13 10 26 -12 8 -22 20 -22 27 0 8 -18 32 -40 53 -31 31 -47 40 -68 37 -20 -2
-27 -8 -25 -23 1 -11 -4 -23 -10 -27 -8 -5 -6 -12 6 -26 9 -10 17 -25 17 -33
0 -8 -14 2 -30 21 -26 31 -27 37 -14 51 11 12 13 27 8 54 -5 30 -4 37 7 33 29
-11 48 11 48 55 0 77 -20 96 -65 62 -10 -8 -29 -15 -41 -15 -19 0 -23 -6 -23
-30 0 -16 5 -30 10 -30 18 0 10 -21 -11 -28 -16 -6 -28 -2 -49 20 -23 22 -37
28 -74 28 -24 0 -48 5 -51 10 -15 25 -35 9 -35 -27 0 -21 -7 -47 -15 -57 -8
-11 -15 -39 -15 -63 0 -38 3 -43 23 -43 60 -2 113 -70 65 -86 -10 -3 -21 -18
-25 -34 -3 -16 -11 -31 -19 -34 -8 -3 -14 -17 -14 -31 0 -14 -11 -34 -25 -47
-14 -12 -24 -29 -23 -38 4 -21 -61 -122 -73 -114 -16 9 -84 106 -118 166 l-32
56 26 6 c22 6 25 11 25 54 0 26 6 56 14 67 7 11 16 49 20 84 5 40 15 74 27 89
10 14 19 34 19 46 0 11 9 44 20 73 25 67 50 186 50 242 0 30 -8 57 -23 80 -13
20 -31 48 -41 63 -9 15 -33 37 -54 48 -20 12 -52 32 -70 45 -19 13 -55 27 -80
30 -26 3 -62 13 -80 21 -18 8 -62 18 -97 23 -77 11 -88 17 -80 41 3 11 1 29
-6 41 -10 19 -9 21 5 16 11 -5 27 4 47 24 33 33 30 51 -16 87 -14 11 -25 23
-25 27 0 16 -54 75 -69 75 -9 0 -29 -14 -44 -31z m71 -33 c13 -22 14 -30 5
-33 -16 -6 -17 -43 -2 -43 7 0 17 7 24 17 11 15 14 14 33 -5 27 -27 27 -28 2
-54 -16 -17 -23 -19 -32 -10 -31 31 -50 2 -25 -39 10 -18 9 -23 -12 -40 -23
-19 -23 -19 -2 -19 12 0 21 -4 21 -10 0 -5 16 -17 35 -26 22 -10 35 -23 35
-36 0 -19 -1 -19 -26 1 -46 37 -103 18 -59 -19 18 -15 20 1 3 18 -9 9 -9 12 3
12 25 0 59 -39 59 -68 0 -33 -35 -92 -54 -92 -23 0 -28 16 -10 31 20 17 35 55
28 72 -5 14 -12 16 -58 20 -23 2 -23 3 -9 20 12 12 13 21 6 28 -14 14 -79 -6
-87 -27 -3 -8 -10 -12 -16 -9 -21 13 -9 33 30 50 35 16 40 22 40 51 0 26 6 37
28 48 19 11 22 15 10 16 -10 0 -18 7 -18 15 0 18 -21 20 -37 4 -8 -8 -17 -6
-34 10 l-23 21 22 22 c17 17 24 20 34 10 7 -7 18 -12 25 -12 18 0 16 37 -2 44
-14 5 -13 10 7 36 26 35 34 35 56 -4z m-158 -286 c0 -5 -5 -10 -12 -10 -6 0
-3 -6 7 -14 18 -13 18 -15 2 -30 -9 -10 -17 -13 -17 -8 0 5 -3 24 -6 41 -5 24
-3 31 10 31 9 0 16 -4 16 -10z m290 -5 c0 -8 -6 -13 -12 -11 -7 1 -10 1 -5 -1
4 -3 7 -13 7 -24 0 -12 -5 -16 -15 -13 -8 4 -15 1 -15 -5 0 -6 5 -11 10 -11 6
0 10 -7 10 -15 0 -19 -19 -20 -26 -1 -9 23 15 96 31 96 8 0 15 -7 15 -15z m86
-13 c10 -5 40 -13 66 -17 50 -8 120 -47 176 -99 37 -35 40 -46 12 -46 -11 0
-29 -9 -40 -20 -19 -19 -19 -19 -14 10 5 24 0 35 -24 60 -17 16 -40 30 -51 30
-44 0 -76 -61 -52 -99 7 -11 2 -22 -15 -38 -31 -28 -30 -28 -37 -1 -4 13 1 31
14 46 10 14 19 38 19 54 0 34 -39 78 -70 78 -25 0 -70 -42 -70 -65 0 -9 5 -25
11 -37 9 -16 6 -24 -12 -44 -19 -20 -24 -37 -25 -87 -1 -34 -11 -89 -23 -122
l-21 -60 5 60 c2 33 6 80 8 105 3 25 2 33 0 18 -5 -32 -33 -38 -33 -7 0 11 5
17 10 14 6 -3 10 -2 10 4 0 5 -5 11 -11 13 -8 3 -6 10 5 21 10 9 13 17 7 17
-6 0 -11 7 -11 15 0 28 30 16 31 -12 0 -16 12 24 26 87 13 63 27 117 30 120 2
3 11 -4 19 -14 11 -16 16 -17 29 -6 19 16 10 30 -21 30 -13 0 -24 4 -24 9 0
10 44 0 76 -17z m-398 -79 c11 -54 24 -114 28 -133 l7 -35 -27 32 c-19 22 -26
42 -26 72 0 45 -33 91 -65 91 -21 0 -65 -45 -65 -66 0 -16 -1 -16 -20 1 -23
20 -63 23 -85 5 -9 -7 -15 -29 -15 -53 0 -37 -1 -39 -17 -24 -10 8 -29 17 -42
19 l-25 3 33 38 c18 20 37 37 43 37 5 0 28 13 52 29 23 16 60 34 81 40 22 6
51 18 65 26 49 28 55 22 78 -82z m110 61 c-26 -44 -16 -70 47 -126 47 -41 63
-84 45 -117 -17 -34 -29 -24 -27 22 1 30 -2 41 -11 39 -8 -1 -11 2 -8 7 4 5
-14 26 -39 47 -62 51 -77 112 -34 147 37 30 51 21 27 -19z m-68 -50 c0 -8 -4
-12 -10 -9 -17 10 -11 -7 8 -22 12 -10 14 -16 5 -19 -10 -4 -9 -10 3 -22 11
-11 13 -17 5 -20 -6 -2 -11 -8 -11 -13 0 -6 5 -7 11 -3 8 5 10 -1 7 -20 -3
-14 -1 -26 3 -26 16 0 10 -28 -7 -34 -14 -5 -15 -17 -9 -74 3 -37 9 -78 12
-92 4 -20 2 -22 -6 -10 -9 12 -11 11 -11 -7 0 -27 -17 -31 -23 -5 -4 13 -5 11
-6 -5 0 -13 -5 -23 -11 -23 -5 0 -10 10 -11 23 -1 21 -2 19 -15 -22 -8 -24
-14 -7 -28 73 -15 84 -14 87 39 90 16 1 30 11 41 32 16 29 16 37 -1 122 -16
86 -15 119 6 107 5 -4 9 -13 9 -21z m388 -12 c27 -35 7 -88 -37 -97 -13 -2
-26 -7 -30 -11 -3 -3 1 -4 9 -3 8 2 16 0 17 -5 1 -5 6 -12 11 -15 10 -6 15
-31 13 -68 -1 -18 -7 -23 -26 -23 -16 0 -25 6 -25 15 0 8 4 15 10 15 5 0 8 13
7 29 -1 16 -5 27 -9 25 -8 -5 -29 31 -26 43 1 4 -3 18 -10 30 -34 61 52 120
96 65z m-468 -13 c7 -11 9 -42 7 -68 -4 -39 -2 -48 11 -47 9 0 22 -11 31 -26
19 -34 5 -54 -51 -68 -29 -8 -38 -15 -34 -28 5 -19 28 -157 28 -169 0 -4 -5
-9 -11 -11 -5 -2 -9 5 -9 15 1 10 -9 51 -22 90 -23 69 -23 74 -6 86 14 11 15
17 6 42 -13 35 4 87 26 78 10 -4 14 3 13 23 -1 24 -3 25 -6 7 l-4 -23 -22 23
c-12 13 -16 15 -8 5 20 -25 5 -35 -19 -13 -29 26 -34 53 -16 80 21 32 70 34
86 4z m316 -32 c-3 -16 -6 -36 -6 -44 0 -12 -2 -12 -15 1 -20 20 -19 36 3 37
10 0 12 3 5 6 -7 2 -13 13 -13 24 0 13 5 17 16 12 12 -4 14 -14 10 -36z m-115
10 c-8 -8 -16 -7 -27 5 -14 14 -14 15 11 10 19 -3 23 -8 16 -15z m404 -2 c14
-13 25 -31 25 -38 0 -21 -37 -64 -46 -54 -4 4 -2 13 4 19 7 7 12 17 12 23 0 5
-10 -6 -23 -25 -17 -26 -23 -30 -25 -17 -2 9 -7 15 -12 12 -14 -9 -31 32 -24
59 5 21 33 43 57 45 4 1 19 -10 32 -24z m-736 -9 c17 -20 17 -76 0 -87 -11 -7
-12 -9 0 -9 7 0 11 -6 8 -14 -4 -11 -1 -13 10 -9 11 4 14 2 9 -5 -5 -8 -2 -10
8 -6 10 4 20 -3 27 -20 14 -30 6 -44 -31 -49 -18 -3 -26 -11 -27 -28 -1 -13 1
-17 3 -7 5 14 33 33 39 26 11 -14 45 -140 39 -149 -4 -8 -9 -7 -15 2 -7 12 -9
12 -9 0 0 -7 -6 -11 -15 -7 -8 3 -15 1 -15 -4 0 -6 -6 -10 -13 -10 -14 0 -42
134 -32 151 4 5 -1 9 -9 9 -19 0 -30 40 -23 79 5 24 1 32 -18 45 -31 20 -35
79 -7 95 25 15 58 13 71 -3z m271 -41 c0 -7 -7 -18 -15 -25 -12 -10 -15 -9
-15 6 0 11 -3 30 -7 44 -6 25 -6 25 15 6 12 -11 22 -25 22 -31z m121 -18 c-16
-16 -26 20 -10 40 13 15 14 14 17 -7 2 -12 -1 -27 -7 -33z m-328 -40 c-4 -22
-8 -25 -23 -17 -14 7 -18 20 -17 53 l2 43 21 -26 c15 -18 20 -34 17 -53z m238
25 c-16 -30 -15 -35 24 -83 33 -42 34 -48 33 -114 -1 -38 -4 -60 -6 -47 -2 13
-8 19 -14 16 -7 -5 -9 2 -4 22 7 27 6 27 -7 10 -13 -18 -14 -18 -20 5 -3 12
-2 28 3 34 6 7 7 15 3 18 -3 4 -1 7 5 7 7 0 12 -8 13 -17 0 -12 2 -14 6 -5 3
8 -8 28 -25 45 -53 57 -61 95 -29 135 16 20 31 -2 18 -26z m-416 -6 c11 -17
14 -35 9 -60 -4 -25 -3 -36 5 -36 7 0 9 -5 6 -10 -4 -6 -16 -8 -28 -4 -12 3
-20 5 -17 3 3 -2 16 -13 29 -24 22 -18 24 -18 18 -2 -4 12 -1 20 10 24 13 5
14 8 2 17 -8 6 -14 30 -14 53 -1 40 0 42 17 26 14 -12 18 -30 17 -80 -1 -54
-4 -65 -23 -75 -11 -6 -23 -10 -26 -9 -2 1 -6 -3 -8 -9 -3 -9 1 -9 16 -1 11 6
23 11 25 11 3 0 14 -28 26 -61 22 -65 17 -105 -6 -54 -14 29 -14 29 -8 3 6
-30 -11 -49 -18 -21 -4 14 -5 13 -6 -4 -3 -61 -32 9 -44 107 -1 8 -10 22 -19
32 -20 20 -25 53 -6 42 7 -4 8 -3 4 4 -8 14 7 45 20 40 5 -1 10 6 11 17 2 15
1 16 -5 5 -19 -39 -72 -16 -72 31 0 56 56 79 85 35z m977 -2 c10 -21 9 -31 -2
-52 -18 -30 -44 -43 -33 -16 6 16 5 17 -9 4 -9 -8 -12 -17 -8 -20 14 -10 30
-49 30 -75 0 -21 -4 -26 -22 -23 -27 4 -35 25 -11 31 15 4 14 5 -4 6 -12 0
-24 7 -27 14 -3 6 -3 0 0 -15 5 -23 3 -26 -15 -21 -12 3 -21 13 -21 25 0 29
20 60 35 54 13 -5 15 17 2 30 -11 12 -8 59 5 72 22 22 67 14 80 -14z m-341
-11 c7 -16 15 -31 17 -35 2 -5 -1 -8 -6 -8 -9 0 -42 53 -42 67 0 13 19 -2 31
-24z m235 -65 c-7 -5 -16 4 -24 23 -11 27 -11 33 5 44 16 12 19 10 24 -23 4
-23 3 -40 -5 -44z m-258 44 c2 -12 8 -22 13 -22 5 0 9 -7 9 -15 0 -17 -45 -21
-55 -5 -10 16 5 72 18 67 7 -2 13 -13 15 -25z m180 16 c10 -10 15 -10 22 2 8
12 10 12 11 -5 1 -11 2 -26 2 -32 -1 -7 3 -13 8 -13 12 0 11 -12 0 -44 -8 -18
-15 -23 -30 -19 -25 6 -27 19 -5 40 11 12 12 18 4 23 -9 6 -7 11 6 19 18 11
17 11 -3 6 -15 -4 -25 0 -32 12 -6 10 -11 13 -11 7 0 -5 7 -19 15 -30 18 -24
19 -34 1 -34 -7 0 -16 14 -20 31 -9 46 6 63 32 37z m-854 -118 c1 -21 9 -46
17 -56 22 -26 47 -157 34 -178 -8 -13 -6 -20 8 -30 15 -11 15 -15 3 -19 -21
-8 -37 16 -34 49 1 16 -8 54 -19 84 -36 92 -63 189 -63 223 l0 32 26 -33 c17
-21 27 -48 28 -72z m816 70 c0 -10 5 -22 10 -25 6 -3 10 -21 10 -38 0 -24 3
-28 10 -17 18 28 21 2 8 -71 -8 -40 -19 -74 -26 -77 -7 -2 -12 5 -13 15 0 10
-3 13 -6 6 -6 -15 -49 -17 -58 -3 -3 5 4 42 17 81 18 57 26 69 40 66 10 -3 18
-1 18 3 0 5 -10 10 -22 12 -19 2 -22 8 -19 33 1 17 5 33 8 38 7 12 23 -3 23
-23z m-390 -16 c0 -8 -6 -14 -12 -14 -10 0 -9 -3 1 -9 8 -5 11 -16 6 -30 -4
-12 -2 -21 4 -21 6 0 11 -7 11 -15 0 -8 -6 -15 -12 -15 -9 0 -9 -3 1 -9 8 -5
11 -16 7 -27 -4 -10 -1 -21 6 -25 9 -6 9 -11 0 -22 -10 -12 -10 -16 1 -20 7
-3 20 7 29 23 13 23 13 31 2 51 -16 29 -18 95 -3 104 17 11 19 1 7 -32 -11
-29 -9 -36 25 -87 23 -34 37 -68 37 -86 0 -18 4 -29 10 -25 6 3 7 17 4 31 -4
14 -2 24 5 24 7 0 11 -20 11 -50 0 -41 -3 -50 -17 -49 -11 0 -13 3 -5 6 19 7
14 26 -6 21 -15 -4 -17 0 -14 28 2 18 -1 41 -7 51 -7 12 -10 13 -11 4 0 -10
-3 -11 -14 -2 -17 14 -29 -3 -40 -55 -4 -17 -13 -31 -20 -31 -10 0 -15 29 -20
106 -3 58 -9 127 -12 154 -6 41 -5 47 10 41 9 -3 16 -12 16 -20z m621 -68 c-6
-34 -22 -90 -36 -124 -14 -34 -25 -72 -25 -85 0 -34 -33 -61 -62 -51 l-23 7
24 9 c17 6 22 14 18 28 -3 11 -1 20 4 20 10 0 32 77 26 93 -2 7 -7 -7 -11 -30
-8 -46 -9 -46 -43 -37 -19 5 -20 10 -12 31 5 14 7 28 5 31 -3 2 -8 -7 -12 -22
-6 -26 -27 -35 -39 -16 -11 18 15 148 31 154 21 8 18 -33 -6 -89 -11 -26 -20
-52 -20 -58 1 -7 13 16 27 51 18 45 30 62 40 58 8 -3 21 -6 29 -6 8 0 14 -11
15 -27 0 -26 1 -26 9 -7 4 12 16 24 25 28 13 5 16 16 14 49 -2 25 2 51 11 65
21 32 25 7 11 -72z m-600 37 c-9 -16 -10 -14 -11 12 0 21 3 26 11 18 8 -8 8
-16 0 -30z m101 15 c-7 -7 -12 -8 -12 -2 0 6 3 14 7 17 3 4 9 5 12 2 2 -3 -1
-11 -7 -17z m149 -20 c1 -17 2 -19 6 -5 2 9 9 17 15 17 7 0 8 -20 4 -57 -13
-108 -13 -110 -46 -105 -19 3 -30 10 -31 21 0 10 -2 11 -6 4 -5 -14 -33 -18
-33 -5 0 4 10 40 21 80 19 63 25 72 45 72 18 0 24 -6 25 -22z m-116 -55 c-9
-91 -14 -108 -28 -94 -9 9 -8 14 3 22 11 8 12 12 3 16 -15 6 -17 33 -3 33 5 0
7 7 3 16 -3 9 0 20 8 26 11 7 11 11 2 15 -18 7 -16 33 3 33 13 0 15 -10 9 -67z
m195 54 c0 -8 -11 -45 -24 -84 -13 -39 -22 -74 -19 -76 2 -3 -5 -10 -16 -17
-24 -12 -27 -5 -7 15 7 8 17 47 20 87 4 40 10 76 12 80 8 13 34 9 34 -5z
m-616 -119 c11 -56 13 -95 8 -100 -6 -6 -12 -6 -16 0 -3 6 -2 13 3 16 5 3 -2
36 -15 72 -23 61 -24 104 -5 104 5 0 16 -41 25 -92z m306 0 c0 -5 -4 -8 -10
-8 -5 0 -10 10 -10 23 0 18 2 19 10 7 5 -8 10 -18 10 -22z m194 -50 c-4 -6
-10 -6 -17 1 -15 15 -44 14 -50 -2 -8 -20 8 -39 29 -36 11 1 27 -1 37 -6 11
-4 23 -3 29 3 8 8 15 7 24 -6 10 -13 17 -15 31 -6 14 9 20 8 29 -4 15 -20 44
-8 44 17 0 13 6 19 20 18 18 -1 18 -2 3 -19 -15 -17 -15 -20 0 -35 12 -12 19
-14 29 -5 11 8 17 6 26 -9 15 -23 17 -23 -76 0 -43 11 -99 22 -127 26 -118 14
-115 13 -115 49 0 18 2 35 5 38 10 9 85 -14 79 -24z m-254 6 c0 -14 -3 -15
-17 -3 -10 7 -20 15 -22 16 -2 2 5 3 17 3 14 0 22 -6 22 -16z m-13 -16 c16
-13 17 -38 2 -38 -5 0 -7 4 -4 10 3 6 -1 7 -10 3 -13 -5 -14 -7 -3 -14 9 -6 3
-9 -18 -9 -17 0 -46 -3 -65 -7 -29 -6 -31 -5 -18 9 8 9 18 14 22 11 18 -11 57
8 57 28 0 11 -4 18 -9 14 -5 -3 -13 0 -17 6 -8 14 44 3 63 -13z m372 -19 c-29
-22 -49 -24 -49 -4 0 19 28 34 53 27 19 -5 19 -6 -4 -23z m-529 -7 c0 -10 5
-23 12 -30 9 -9 7 -12 -10 -12 -16 0 -20 4 -15 16 4 11 -1 22 -12 30 -18 13
-18 14 3 14 15 0 22 -6 22 -18z m666 -17 c-2 -7 3 -12 12 -11 9 0 18 -7 20
-16 6 -31 -25 -20 -46 16 -20 33 -20 34 0 28 10 -2 17 -10 14 -17z m574 6 c0
-10 -7 -22 -16 -25 -8 -3 -12 -10 -9 -16 4 -6 10 -8 15 -5 4 3 10 -1 13 -9 7
-18 -17 -28 -31 -14 -15 15 -35 -28 -27 -61 4 -19 0 -32 -13 -44 -18 -17 -18
-18 18 -57 51 -55 97 -51 56 5 -9 13 -11 25 -5 36 4 9 5 19 2 23 -3 3 4 6 16
6 22 0 65 -42 86 -84 8 -16 6 -25 -10 -41 -11 -12 -29 -33 -40 -48 l-20 -27
-62 30 c-54 26 -63 34 -64 58 l-1 27 -9 -31 c-5 -17 -16 -37 -25 -45 -13 -11
-17 -10 -25 4 -6 9 -15 17 -20 17 -6 0 -3 -10 5 -22 21 -30 20 -53 -3 -75 -10
-10 -21 -27 -23 -38 -3 -15 -11 -20 -33 -18 -24 2 -27 0 -13 -8 13 -7 16 -17
11 -42 -8 -40 -19 -48 -51 -36 -22 9 -23 8 -12 -6 11 -13 9 -25 -15 -75 l-28
-59 -29 17 c-50 29 -51 35 -13 102 19 34 35 71 35 82 0 18 5 20 33 14 25 -4
28 -3 14 5 -12 7 -15 17 -11 37 10 40 21 48 42 29 24 -21 39 -22 18 -1 -21 21
-20 70 2 86 9 7 17 22 17 32 0 29 30 44 56 28 18 -11 20 -11 17 0 -3 7 -25 15
-51 18 -28 4 -55 14 -70 28 -13 12 -31 22 -40 22 -21 0 -23 39 -2 66 8 10 15
30 15 44 0 25 1 25 64 20 68 -6 90 -15 62 -26 -9 -3 -16 -12 -16 -20 0 -8 -10
-14 -24 -14 -14 0 -28 -5 -31 -10 -11 -18 16 -40 49 -40 18 0 38 -6 45 -12 10
-11 11 -10 5 5 -8 22 21 67 45 67 10 0 23 11 29 25 15 33 15 35 -3 35 -8 0
-15 7 -15 16 0 12 6 15 25 10 18 -5 25 -2 25 8 0 13 13 23 33 25 4 1 7 -8 7
-18z m-1262 -15 c-2 -19 -11 -27 -43 -36 -22 -6 -48 -14 -57 -16 -13 -4 -16
-1 -12 9 3 8 -2 22 -11 31 -9 9 -14 16 -12 16 3 0 13 3 23 7 11 4 15 3 11 -4
-11 -18 4 -43 24 -43 11 0 22 7 25 15 4 8 11 12 17 8 6 -3 7 -1 3 5 -9 15 1
32 19 32 9 0 14 -9 13 -24z m-615 -56 c10 -33 17 -68 17 -77 1 -16 2 -15 13 2
26 45 61 84 69 79 14 -9 50 -85 43 -92 -4 -4 -30 -14 -58 -24 -29 -9 -46 -17
-40 -17 7 -1 28 -24 47 -52 18 -28 35 -47 37 -42 2 4 30 32 62 62 55 52 58 53
76 37 11 -10 24 -31 30 -47 10 -29 10 -29 -64 -64 -40 -19 -79 -35 -87 -35
-10 -1 -10 -3 2 -13 8 -7 51 -49 94 -95 l80 -82 -30 -31 -29 -31 37 18 c41 19
43 19 52 -12 5 -16 -3 -27 -38 -52 -54 -39 -68 -41 -35 -6 l24 27 -31 -16
c-30 -16 -32 -15 -53 9 -12 14 -30 47 -41 74 -11 28 -33 77 -50 110 l-31 61
-27 -20 c-15 -11 -45 -38 -67 -60 -21 -23 -43 -41 -47 -41 -9 0 -68 79 -68 90
0 10 155 80 177 80 15 0 15 1 1 13 -9 6 -28 34 -42 61 -14 27 -26 42 -26 35 0
-8 -17 -32 -38 -52 l-39 -38 -26 40 c-15 22 -27 45 -27 50 0 6 27 16 59 22
l59 13 -59 49 c-32 27 -56 54 -53 59 10 15 86 68 99 68 6 0 19 -27 28 -60z
m807 50 c0 -5 -15 -10 -32 -10 -40 0 -170 -31 -252 -59 -33 -12 -61 -19 -64
-16 -11 10 192 71 283 84 33 5 61 9 63 10 1 0 2 -3 2 -9z m324 -14 c90 -18
220 -55 213 -62 -3 -3 -40 6 -84 19 -68 22 -154 38 -258 51 -23 2 -20 3 12 5
23 0 75 -5 117 -13z m-329 -16 c-3 -5 -21 -10 -38 -10 -38 0 -170 -31 -250
-59 -32 -11 -55 -16 -52 -11 6 10 136 54 220 74 72 17 129 20 120 6z m397 -24
c51 -13 109 -31 128 -40 40 -19 30 -17 -110 20 -52 14 -122 27 -155 31 -33 3
-67 10 -75 15 -26 16 114 -1 212 -26z m-324 -21 c-6 -14 -17 -25 -25 -25 -7 0
-13 -7 -13 -15 0 -8 6 -15 14 -15 8 0 18 -10 22 -22 4 -13 11 -26 16 -29 5 -3
-35 -9 -89 -12 -83 -5 -221 -35 -284 -62 -10 -3 -20 -2 -23 4 -4 5 3 12 13 16
11 3 23 15 26 26 9 27 -22 61 -47 53 -12 -3 -18 0 -18 9 0 28 249 91 377 96
42 1 42 1 31 -24z m209 10 c125 -20 253 -61 253 -82 0 -10 -6 -13 -16 -9 -8 3
-24 1 -35 -5 -27 -14 -22 -60 8 -75 42 -20 12 -22 -50 -3 -83 26 -218 49 -283
49 l-53 0 11 31 c7 19 15 28 24 25 9 -3 14 2 14 14 0 11 -6 20 -13 20 -8 0
-19 11 -25 25 -11 25 -11 25 31 25 23 0 83 -7 134 -15z m637 -27 c-8 -30 -7
-29 -37 -31 -14 -1 -25 3 -24 8 1 6 12 9 25 7 16 -2 22 2 22 18 0 11 5 20 11
20 6 0 8 -9 3 -22z m-1204 -103 c0 -13 -6 -25 -12 -28 -22 -7 -38 4 -38 28 0
13 6 25 13 28 21 7 37 -4 37 -28z m815 7 c3 -8 -1 -22 -9 -30 -12 -13 -18 -13
-30 -2 -19 15 -20 32 -5 47 14 14 35 7 44 -15z m-229 -37 c95 -18 204 -53 204
-66 0 -5 -4 -9 -10 -9 -5 0 -10 -7 -10 -14 0 -13 -9 -12 -56 4 -195 67 -453
68 -651 1 -70 -23 -93 -26 -93 -10 0 5 4 8 9 4 5 -3 12 -1 16 5 4 6 11 8 16 5
5 -4 9 1 9 11 0 13 -3 14 -13 5 -8 -6 -17 -8 -21 -4 -12 13 146 63 239 76 77
11 289 6 361 -8z m-268 -95 c-14 -41 -22 -44 -73 -30 -38 11 -43 15 -35 31 9
16 32 23 97 27 20 2 21 0 11 -28z m254 6 c4 -6 1 -14 -6 -18 -21 -12 -96 -21
-96 -12 0 5 -3 20 -7 33 -6 23 -5 23 48 16 30 -4 57 -12 61 -19z m26 -61 c10
-22 9 -27 -6 -31 -9 -3 -30 -11 -46 -17 -24 -9 -31 -8 -42 8 -26 36 -15 45 77
64 3 0 11 -10 17 -24z m-352 4 c39 -10 44 -14 38 -33 -11 -36 -21 -39 -68 -21
-51 20 -50 19 -36 46 13 22 9 22 66 8z m394 -91 c0 -8 -73 -48 -88 -48 -9 0
-36 50 -30 55 2 2 23 10 48 18 41 14 46 14 58 -1 6 -9 12 -19 12 -24z m-408
11 c27 -11 27 -12 12 -40 -8 -16 -16 -29 -19 -29 -3 0 -72 38 -83 46 -2 1 -1
12 3 24 7 23 26 23 87 -1z m172 -34 c3 -8 3 -22 0 -30 -4 -8 -1 -15 5 -15 6 0
11 5 11 12 0 8 6 7 16 -4 20 -20 9 -41 -17 -33 -15 5 -19 1 -19 -14 0 -12 -4
-21 -10 -21 -5 0 -10 9 -10 20 0 15 -6 19 -22 17 -15 -1 -23 3 -23 13 0 10 8
14 24 12 17 -1 22 2 17 13 -6 17 2 45 14 45 4 0 10 -7 14 -15z m265 -31 c6
-15 10 -27 9 -28 -2 -1 -23 -11 -48 -23 l-45 -22 -13 25 c-8 14 -12 27 -10 29
6 5 83 44 89 45 3 0 11 -12 18 -26z m-489 -4 c37 -19 39 -22 28 -45 -14 -30
-17 -31 -68 -4 -45 23 -44 23 -30 50 13 24 21 24 70 -1z m540 -82 c0 -3 -21
-18 -47 -33 -44 -27 -47 -27 -60 -9 -22 30 -15 40 35 61 43 18 48 18 59 4 7
-9 13 -19 13 -23z m-584 10 c49 -24 50 -26 30 -53 -14 -19 -15 -19 -51 0 -50
27 -61 41 -45 60 16 19 15 19 66 -7z m264 -18 c0 -5 -4 -10 -10 -10 -5 0 -10
5 -10 10 0 6 5 10 10 10 6 0 10 -4 10 -10z m7 -30 c-13 -18 -15 -19 -21 -5 -3
10 -2 14 5 10 6 -4 13 3 16 16 4 13 8 18 11 11 2 -6 -3 -21 -11 -32z m-316
-16 l41 -26 -22 -23 -23 -24 -36 27 c-20 14 -37 27 -38 27 -4 2 28 45 33 45 2
0 23 -12 45 -26z m224 16 c-3 -6 5 -10 19 -10 37 0 41 -17 5 -25 -23 -5 -36
-3 -48 9 -14 15 -14 18 -1 26 20 13 33 13 25 0z m172 2 c10 -7 10 -12 0 -25
-9 -13 -20 -16 -44 -11 -40 8 -33 24 10 24 24 0 28 3 17 10 -8 5 -10 10 -5 10
6 0 16 -4 22 -8z m261 -4 c19 -19 14 -31 -20 -55 l-32 -23 -23 22 c-25 24 -23
29 22 52 36 19 38 19 53 4z m-478 -27 c13 -26 13 -31 -4 -31 -18 0 -39 27 -31
40 10 16 23 12 35 -9z m283 13 c12 -12 -16 -41 -35 -36 -18 4 -24 23 -11 35 8
9 38 9 46 1z m57 -28 c0 -20 -20 -34 -41 -29 -22 6 -23 7 -7 32 12 20 48 17
48 -3z m-380 -21 c0 -18 -32 -28 -42 -13 -11 19 -10 36 5 41 15 5 37 -11 37
-28z m120 5 c-20 -13 -33 -13 -25 0 3 6 14 10 23 10 15 0 15 -2 2 -10z m110 6
c0 -11 -19 -15 -25 -6 -3 5 1 10 9 10 9 0 16 -2 16 -4z m189 -15 c8 -14 7 -22
-2 -29 -19 -16 -40 2 -32 27 8 26 21 27 34 2z m121 -55 c-40 -40 -42 -40 -56
-22 -22 30 -17 43 23 70 35 24 38 25 55 9 18 -16 17 -18 -22 -57z m-721 38
c34 -28 38 -42 19 -66 -12 -15 -18 -13 -57 23 -36 32 -41 41 -31 54 18 21 34
19 69 -11z m121 5 c15 -27 -5 -56 -26 -38 -17 14 -18 31 -2 47 16 16 15 16 28
-9z m160 -21 c0 -15 -37 -8 -54 11 -17 18 -17 19 1 23 18 4 53 -18 53 -34z
m91 25 c13 -17 13 -17 -6 -3 -11 8 -22 16 -24 17 -2 2 0 3 6 3 6 0 17 -8 24
-17z m92 10 c9 -8 -22 -43 -39 -43 -20 0 -27 19 -14 35 13 16 42 20 53 8z m55
-21 c18 -12 -20 -45 -42 -36 -19 7 -20 16 -4 32 14 14 28 15 46 4z m-303 -16
c8 -7 11 -16 8 -20 -11 -11 -40 -7 -52 7 -21 26 19 38 44 13z m353 -34 c-7 -9
-13 -18 -14 -20 -1 -2 -11 2 -23 9 -19 12 -19 15 -4 31 12 13 20 15 35 7 16
-9 17 -13 6 -27z m64 3 c5 -24 4 -25 -13 -9 -10 9 -15 22 -12 30 7 19 20 9 25
-21z m-677 -15 c38 -39 38 -40 20 -60 l-19 -21 -42 42 c-36 36 -41 44 -31 60
17 27 28 24 72 -21z m119 -1 c-21 -24 -28 -18 -20 16 6 22 9 25 22 14 13 -10
12 -14 -2 -30z m719 23 c16 -17 14 -21 -26 -60 -42 -41 -44 -42 -60 -24 -24
27 -22 36 21 71 44 36 44 36 65 13z m-634 -6 c9 -10 8 -16 -4 -26 -21 -17 -51
6 -34 26 6 8 15 14 19 14 4 0 13 -6 19 -14z m126 4 c3 -6 -1 -7 -9 -4 -18 7
-21 14 -7 14 6 0 13 -4 16 -10z m-15 -14 l32 -13 -27 -7 c-43 -11 -89 13 -52
27 6 3 13 6 13 6 1 1 16 -5 34 -13z m203 7 c15 -14 -29 -32 -68 -27 -36 4 -38
3 -15 -7 16 -7 20 -13 12 -16 -8 -3 -19 0 -25 6 -18 18 -31 13 -16 -6 13 -16
12 -17 -3 -5 -9 8 -22 11 -28 7 -5 -3 -10 -3 -10 0 0 9 102 54 126 54 11 1 24
-2 27 -6z m142 -52 c-13 -14 -17 -14 -32 1 -14 14 -14 20 -3 33 12 14 15 14
32 -2 17 -15 17 -18 3 -32z m-85 24 c8 -9 8 -15 2 -15 -6 0 -19 -3 -29 -6 -15
-5 -16 -4 -3 6 12 9 9 10 -15 6 -28 -6 -29 -5 -11 9 25 19 40 19 56 0z m-613
-112 l-27 -28 -40 45 c-46 52 -48 63 -18 84 22 15 25 14 68 -29 l45 -45 -28
-27z m196 103 c8 -20 -20 -43 -35 -28 -14 14 -3 42 16 42 7 0 16 -6 19 -14z
m103 -1 c10 -8 14 -15 9 -15 -6 0 -17 6 -24 13 -10 10 -18 6 -40 -19 -16 -17
-31 -38 -34 -45 -3 -11 -7 -11 -18 -2 -10 10 -9 16 6 33 10 11 20 18 23 15 3
-3 11 4 19 15 17 24 32 25 59 5z m92 -1 c-9 -9 -22 -14 -30 -11 -8 3 -4 8 12
15 35 15 37 14 18 -4z m561 -29 c0 -5 -17 -30 -39 -55 l-39 -44 -26 24 c-14
13 -25 27 -25 31 0 5 19 26 42 48 41 37 43 38 65 22 12 -9 22 -20 22 -26z
m-290 -22 c-15 -17 -16 -17 -29 7 -16 30 -2 45 21 24 14 -13 16 -20 8 -31z
m-1211 13 c29 -11 52 -22 51 -25 0 -4 -15 -18 -33 -33 l-33 -27 -38 39 c-33
33 -36 41 -25 55 7 9 16 14 19 13 4 -2 30 -12 59 -22z m929 -21 c15 -33 -7
-34 -37 -3 -25 27 -25 22 0 -30 28 -57 26 -72 -7 -71 -24 2 -25 2 -5 6 23 5
29 18 13 28 -5 3 -12 1 -16 -5 -3 -5 -15 -10 -26 -10 -11 0 -17 -4 -14 -10 11
-18 -2 -10 -21 13 -10 12 -12 17 -5 10 7 -6 20 -10 27 -7 51 15 50 14 32 28
-14 10 -15 19 -6 53 9 38 12 41 32 32 11 -6 26 -21 33 -34z m153 34 c0 -5 3
-8 8 -6 4 3 7 -10 6 -27 -1 -22 -11 -44 -32 -66 l-32 -33 16 47 c9 25 20 48
25 52 5 3 9 10 9 16 0 6 -11 -1 -25 -16 -13 -14 -31 -26 -39 -26 -13 0 -13 4
-1 27 20 38 65 60 65 32z m190 -21 c0 -23 -3 -29 -11 -21 -6 6 -8 20 -4 32 9
30 15 26 15 -11z m744 25 c3 -4 -12 -26 -35 -50 l-42 -42 -24 25 c-13 15 -23
27 -21 29 2 1 21 12 43 23 42 22 67 27 79 15z m-1314 -28 c0 -8 -4 -17 -10
-20 -6 -4 -10 5 -10 20 0 15 4 24 10 20 6 -3 10 -12 10 -20z m-237 -41 c20
-26 37 -50 37 -54 0 -9 -49 -55 -53 -49 -37 49 -77 108 -77 114 0 10 32 34 45
35 6 0 27 -21 48 -46z m733 -43 c6 -40 6 -41 -22 -40 -17 1 -22 3 -11 6 9 2
17 11 17 20 0 10 -6 13 -16 9 -9 -3 -22 -6 -30 -6 -9 0 -12 -4 -9 -10 4 -6
-10 -9 -37 -8 -37 1 -38 2 -10 5 29 4 31 6 21 25 -9 16 -8 19 3 12 20 -13 58
-16 58 -5 0 5 -5 13 -11 17 -8 4 -8 9 0 17 6 6 11 20 11 32 1 18 2 17 15 -6 8
-15 17 -45 21 -68z m355 70 l23 -19 -42 -56 -43 -57 -30 21 c-17 13 -26 26
-22 33 15 26 76 97 83 97 4 0 18 -8 31 -19z m519 -7 c0 -7 -81 -109 -89 -112
-4 -1 -13 10 -20 24 -11 25 -9 30 30 70 34 35 46 41 61 33 10 -5 18 -12 18
-15z m-2100 -79 c0 -6 -6 -19 -13 -29 -12 -17 -17 -14 -60 40 -43 54 -45 60
-30 72 15 10 23 6 60 -30 24 -23 43 -47 43 -53z m820 37 c-15 -5 -12 -23 8
-46 17 -21 17 -21 -5 -2 -22 19 -23 18 -33 -5 -9 -20 -10 -17 -5 18 3 23 10
54 16 70 l12 28 8 -30 c5 -19 5 -31 -1 -33z m448 1 c-9 -8 -21 -12 -27 -9 -17
11 -13 37 7 52 14 11 18 10 26 -7 7 -14 5 -24 -6 -36z m-488 10 c0 -21 -17
-23 -35 -3 -22 24 -11 44 15 27 11 -6 20 -17 20 -24z m-343 -67 l27 -38 -28
-25 c-15 -13 -32 -23 -37 -21 -4 2 -26 32 -48 68 l-39 65 31 17 c36 19 33 20
94 -66z m1696 53 c-2 -33 -46 -150 -57 -152 -5 -1 -19 12 -32 28 l-23 30 47
62 c48 64 68 74 65 32z m-2219 -38 c25 -33 46 -62 46 -66 0 -11 -41 -65 -49
-65 -11 0 -72 171 -65 181 10 17 21 8 68 -50z m1045 27 c0 -28 -2 -30 -9 -13
-12 28 -12 45 0 45 6 0 10 -15 9 -32z m101 18 c0 -20 -11 -46 -19 -46 -3 0 -6
14 -6 30 0 17 5 30 13 30 6 0 12 -6 12 -14z m605 2 c14 -6 24 -14 23 -17 -10
-19 -65 -106 -78 -122 -14 -18 -16 -18 -48 9 l-32 27 45 58 c49 62 51 63 90
45z m-895 -65 c0 -35 -16 -27 -34 17 -21 53 -20 54 9 28 14 -12 25 -32 25 -45z
m240 42 c0 -8 -7 -15 -15 -15 -8 0 -15 7 -15 15 0 8 7 15 15 15 8 0 15 -7 15
-15z m-672 -74 c23 -36 39 -69 36 -73 -3 -4 -18 -15 -33 -23 l-29 -14 -31 77
c-18 42 -34 82 -37 89 -6 12 36 24 48 14 3 -4 24 -35 46 -70z m927 40 c-18
-36 -36 -41 -27 -8 5 20 33 50 40 42 2 -2 -4 -17 -13 -34z m490 19 c4 -6 -58
-155 -70 -168 -2 -2 -12 1 -22 7 -49 28 -49 25 1 104 37 61 50 74 66 70 11 -3
22 -9 25 -13z m429 -131 c-9 -44 -20 -79 -23 -79 -3 0 -19 11 -35 24 -29 23
-30 24 -17 65 6 23 21 63 32 88 l20 47 20 -33 c20 -33 20 -35 3 -112z m-2324
46 l31 -80 -32 -28 c-17 -16 -33 -26 -36 -23 -3 3 -13 39 -23 80 -17 73 -17
75 3 106 11 17 21 29 23 28 1 -2 17 -39 34 -83z m391 1 c21 -46 39 -88 39 -93
0 -5 -14 -14 -31 -20 -27 -11 -31 -10 -39 10 -5 12 -18 44 -30 72 -20 48 -20
50 -3 82 10 18 19 33 21 33 2 0 21 -38 43 -84z m2045 40 c-3 -11 -6 -29 -6
-38 0 -10 -4 -18 -9 -18 -15 0 -49 61 -44 80 4 16 9 17 35 8 24 -8 29 -15 24
-32z m-2548 11 c2 -9 -7 -31 -19 -49 -21 -28 -23 -29 -30 -12 -14 35 -10 72 9
77 25 7 37 2 40 -16z m2067 -6 c14 -27 13 -34 -11 -98 -14 -37 -27 -69 -28
-71 -6 -5 -66 20 -66 28 0 17 73 170 81 170 5 0 15 -13 24 -29z m-809 3 c18
-14 18 -14 -5 -3 -20 9 -27 9 -35 -3 -9 -11 -15 -12 -35 -2 l-24 12 24 5 c45
8 55 7 75 -9z m57 7 c17 -6 17 -8 -6 -18 -22 -10 -26 -9 -30 8 -5 20 5 23 36
10z m-1399 -16 c3 -8 8 -36 11 -62 5 -41 2 -52 -18 -76 l-24 -29 -7 82 c-6 64
-5 85 6 91 19 12 25 11 32 -6z m1200 -4 c-15 -15 -23 -16 -39 -7 -18 9 -17 11
15 17 19 3 37 7 39 8 3 0 -4 -7 -15 -18z m305 13 l32 -7 -42 -19 c-27 -12 -53
-16 -71 -13 -28 7 -40 -8 -15 -18 6 -3 -3 -6 -22 -6 l-35 -1 35 26 c26 19 41
24 67 19 37 -7 43 1 10 15 -28 11 -5 13 41 4z m1188 0 c21 -6 22 -10 17 -68
-3 -33 -7 -72 -10 -84 -5 -23 -6 -22 -35 14 -16 20 -27 44 -25 53 3 9 8 33 12
54 7 40 7 40 41 31z m-1673 -48 c-36 -36 -42 -63 -21 -86 10 -12 9 -12 -5 -1
-10 7 -18 22 -18 32 0 19 55 89 70 89 4 0 -7 -15 -26 -34z m640 3 c48 -56 27
-100 -46 -98 l-33 1 35 7 c20 4 41 11 48 15 21 13 13 47 -19 77 -17 16 -27 29
-21 29 6 0 22 -14 36 -31z m1113 14 c18 -23 58 -102 67 -130 7 -21 5 -22 -26
-17 -18 4 -36 9 -40 13 -7 7 -27 151 -20 151 3 0 11 -8 19 -17z m-1487 -13
l25 -20 -27 0 c-20 0 -26 4 -22 15 5 11 -1 13 -32 8 -27 -4 -35 -3 -30 5 11
18 58 14 86 -8z m-1390 -69 c-12 -66 -14 -69 -44 -74 -17 -2 -32 -3 -34 -2 -2
2 4 20 13 41 19 47 66 116 73 109 3 -3 -1 -36 -8 -74z m1295 55 l40 -15 -32
-1 c-18 0 -33 5 -33 11 0 7 -11 8 -30 4 -24 -5 -30 -3 -30 10 0 19 17 17 85
-9z m380 13 c12 -18 -4 -23 -31 -10 -28 12 -55 4 -33 -10 10 -6 6 -9 -13 -9
-34 0 -36 13 -5 28 29 14 74 15 82 1z m-1055 -72 c12 -32 21 -60 18 -62 -2 -2
-19 -6 -37 -7 -32 -3 -34 -1 -52 52 -10 30 -17 55 -16 56 1 0 13 8 27 17 29
20 30 18 60 -56z m1726 19 c-3 -6 -10 -30 -17 -53 -10 -37 -15 -43 -38 -43
-56 0 -58 21 -11 122 l13 27 29 -20 c16 -12 27 -26 24 -33z m691 -40 c81 -75
115 -131 116 -193 0 -60 -27 -86 -75 -72 -41 11 -44 15 -56 69 -16 69 -70 219
-92 257 l-20 34 32 -18 c17 -10 60 -45 95 -77z m-1285 65 c4 -3 -4 -6 -17 -6
-12 0 -21 3 -19 7 2 3 -2 9 -8 12 -7 3 -2 3 12 0 14 -4 28 -9 32 -13z m936
-17 c23 -37 26 -60 16 -112 l-6 -31 -38 19 -37 19 16 70 c9 39 18 71 21 71 3
-1 15 -17 28 -36z m-2463 -41 c8 -32 14 -61 15 -65 0 -11 -59 -40 -69 -34 -5
3 -12 26 -15 51 -6 39 -4 49 20 80 15 20 29 34 31 31 2 -2 11 -30 18 -63z
m-321 4 c-13 -30 -28 -74 -33 -98 -5 -24 -16 -62 -25 -84 -8 -22 -15 -50 -16
-61 0 -44 -76 -70 -110 -39 -53 48 13 188 133 285 34 27 65 50 69 50 4 0 -4
-24 -18 -53z m1264 40 l23 -13 -25 -12 c-29 -13 -67 -5 -44 9 10 7 10 9 -2 9
-13 0 -13 1 0 10 19 12 20 12 48 -3z m102 -23 c0 -13 -5 -24 -10 -24 -6 0 -9
13 -8 29 3 35 18 31 18 -5z m100 11 c0 -14 -4 -25 -9 -25 -10 0 -21 36 -13 44
12 13 22 5 22 -19z m32 0 c4 -17 1 -25 -8 -25 -8 0 -14 11 -14 25 0 14 4 25 9
25 5 0 11 -11 13 -25z m98 0 c0 -18 -5 -25 -20 -25 -17 0 -19 3 -11 19 6 10 7
21 4 25 -3 3 1 6 10 6 11 0 17 -8 17 -25z m30 0 c0 -14 -4 -25 -10 -25 -5 0
-10 11 -10 25 0 14 5 25 10 25 6 0 10 -11 10 -25z m40 -6 c0 -10 -7 -19 -15
-19 -15 0 -21 31 -9 43 11 10 24 -3 24 -24z m-270 -4 c0 -14 -4 -25 -10 -25
-5 0 -10 11 -10 25 0 14 5 25 10 25 6 0 10 -11 10 -25z m35 2 c0 -26 -20 -25
-23 2 -3 16 1 22 10 19 7 -3 13 -12 13 -21z m115 13 c0 -5 -7 -10 -15 -10 -8
0 -15 5 -15 10 0 6 7 10 15 10 8 0 15 -4 15 -10z m150 -15 c0 -14 -4 -25 -10
-25 -5 0 -10 11 -10 25 0 14 5 25 10 25 6 0 10 -11 10 -25z m30 0 c0 -14 -4
-25 -10 -25 -5 0 -10 11 -10 25 0 14 5 25 10 25 6 0 10 -11 10 -25z m-1093
-72 c-4 -3 -18 -3 -32 1 -30 8 -34 40 -8 68 17 19 18 18 31 -22 8 -23 12 -44
9 -47z m703 61 c0 -14 -4 -23 -10 -19 -5 3 -10 15 -10 26 0 10 5 19 10 19 6 0
10 -12 10 -26z m420 1 c0 -14 -4 -25 -10 -25 -5 0 -10 11 -10 25 0 14 5 25 10
25 6 0 10 -11 10 -25z m156 -1 c-9 -8 -16 -23 -17 -32 0 -10 -3 -12 -5 -5 -7
15 13 53 27 53 6 0 3 -7 -5 -16z m64 2 c6 -8 10 -25 7 -38 -4 -21 -4 -20 -6 4
0 15 -9 32 -18 37 -10 6 -13 11 -7 11 6 0 17 -7 24 -14z m510 -5 c16 -31 12
-47 -16 -60 -15 -6 -29 -10 -31 -7 -7 6 19 86 28 86 5 0 13 -9 19 -19z m-1329
-8 c11 -15 11 -16 -1 -5 -20 18 -57 15 -69 -5 -6 -10 -11 -13 -11 -7 -1 33 59
46 81 17z m139 -13 c0 -5 -19 -9 -42 -9 l-43 2 35 7 c19 4 38 8 43 9 4 0 7 -3
7 -9z m438 -6 c12 -4 22 -11 22 -16 0 -6 -10 -7 -22 -4 -42 13 -292 18 -348 8
-51 -10 -70 -9 -58 3 20 20 336 27 406 9z m1162 -119 l0 -35 -22 20 c-13 10
-31 25 -41 33 -15 10 -17 20 -11 52 l7 39 33 -37 c25 -27 34 -46 34 -72z
m-2660 52 c0 -25 -8 -39 -35 -60 l-35 -28 0 32 c0 35 45 103 61 94 5 -4 9 -21
9 -38z m1256 28 c38 -11 56 -12 83 -4 64 21 141 7 222 -41 144 -85 195 -110
247 -121 49 -12 54 -11 74 9 21 20 21 24 9 72 -7 28 -10 54 -7 58 13 12 134
14 168 3 125 -41 184 -230 113 -360 -30 -54 -99 -117 -142 -127 -18 -5 -23
-13 -23 -38 -1 -17 -9 -130 -19 -251 -16 -191 -16 -224 -4 -248 18 -36 58 -52
101 -39 26 8 36 7 48 -6 29 -28 56 -106 61 -172 15 -203 -187 -366 -380 -307
l-48 15 -10 -26 c-61 -168 -113 -223 -272 -289 -71 -29 -103 -49 -138 -85
l-46 -48 -31 39 c-20 25 -56 51 -97 70 -36 17 -94 45 -130 62 -82 38 -133 99
-172 204 -21 57 -32 73 -43 69 -152 -62 -342 21 -394 173 -31 90 -12 222 42
290 15 20 21 22 52 12 25 -8 43 -8 63 0 51 20 54 44 35 308 -9 131 -17 243
-17 249 -1 6 -19 19 -42 29 -55 25 -123 103 -139 160 -19 68 -8 164 24 220 41
69 94 99 180 103 89 4 117 -11 98 -52 -7 -15 -12 -40 -12 -56 0 -76 113 -61
262 36 106 68 170 98 224 103 6 1 33 -6 60 -14z m-336 -10 c-7 -8 -22 -14 -34
-14 -20 1 -20 2 -1 6 11 3 24 9 30 14 15 14 19 10 5 -6z m860 0 c-14 -7 -28
-24 -31 -37 -7 -22 -7 -22 -8 -1 -1 21 32 53 54 53 5 -1 -1 -7 -15 -15z m57
-1 c-3 -3 -12 -4 -19 -1 -8 3 -5 6 6 6 11 1 17 -2 13 -5z m-992 -25 c9 -26 -3
-89 -16 -89 -6 0 -6 7 1 19 15 30 12 69 -7 80 -16 9 -17 10 -1 11 9 0 20 -9
23 -21z m1956 0 c27 -27 21 -53 -14 -57 -28 -3 -30 0 -41 51 -5 22 -3 27 14
27 11 0 29 -9 41 -21z m-2961 -19 c0 -11 -9 -29 -20 -40 -25 -25 -60 -27 -60
-3 0 23 39 63 62 63 11 0 18 -7 18 -20z m1973 -5 c7 -16 -8 -29 -23 -20 -10 6
-2 35 10 35 4 0 10 -7 13 -15z m-1004 -16 c1 8 4 12 7 8 3 -3 3 -11 -1 -17 -5
-8 -11 -8 -21 1 -7 6 -11 16 -7 22 4 6 9 3 14 -9 5 -11 8 -13 8 -5z m976 -39
c10 -11 13 -20 7 -20 -6 0 -16 9 -22 20 -6 11 -9 20 -7 20 2 0 12 -9 22 -20z
m-1605 -10 c9 -17 7 -22 -12 -29 -114 -44 -145 -47 -111 -9 16 19 87 57 105
58 4 0 12 -9 18 -20z m1680 8 c0 -4 -4 -8 -9 -8 -6 0 -12 4 -15 8 -3 5 1 9 9
9 8 0 15 -4 15 -9z m641 -20 c27 -15 35 -25 31 -40 -3 -12 -10 -17 -20 -13 -9
3 -37 13 -64 22 -26 8 -46 18 -44 22 1 3 6 14 9 24 8 21 29 17 88 -15z m347
-18 c-2 -5 -12 -2 -23 6 -17 13 -18 16 -5 24 15 9 35 -11 28 -30z m-3081 7
c-2 -6 -13 -17 -25 -25 -20 -13 -22 -13 -17 2 3 9 7 23 10 31 2 9 11 12 20 9
9 -4 14 -11 12 -17z m3067 -54 c38 -36 38 -37 34 -100 -2 -40 -10 -69 -20 -79
-16 -17 -18 -11 -63 194 -7 31 4 28 49 -15z m-3051 -92 c-15 -61 -32 -110 -38
-108 -20 7 -35 53 -35 107 1 54 1 55 47 87 26 18 49 31 50 29 2 -2 -9 -53 -24
-115z m415 92 c-3 -24 -10 -29 -70 -44 -66 -16 -66 -16 -72 4 -3 12 -4 22 -3
23 10 7 116 43 130 43 14 1 18 -5 15 -26z m2267 6 c45 -17 56 -25 53 -40 -4
-24 -4 -24 -73 -8 -46 10 -55 16 -55 34 0 19 7 35 16 35 2 0 28 -9 59 -21z
m-2250 -107 c-2 -3 -21 -8 -42 -12 -21 -4 -52 -11 -69 -15 -28 -6 -32 -4 -36
18 -5 24 -1 27 66 45 l71 19 7 -26 c4 -14 5 -27 3 -29z m2244 32 c46 -13 51
-17 45 -37 -3 -12 -7 -23 -8 -24 0 -1 -26 4 -56 11 -48 11 -55 16 -58 39 -4
32 4 33 77 11z m-2235 -81 c7 -18 -9 -33 -35 -33 -9 0 -38 -3 -64 -6 -43 -6
-47 -5 -43 12 2 13 18 22 53 30 70 17 82 16 89 -3z m2215 5 c39 -9 51 -16 51
-30 0 -18 -5 -19 -57 -12 -71 8 -72 9 -66 34 6 23 6 23 72 8z m-2199 -89 c0
-23 -128 -38 -141 -17 -18 27 -13 30 81 46 47 8 60 2 60 -29z m2232 15 c11 -7
10 -32 -2 -39 -6 -4 -35 -3 -65 0 -43 6 -55 11 -55 24 0 10 3 21 8 25 7 8 98
-1 114 -10z m-2222 -79 c0 -22 -4 -25 -39 -25 -21 0 -52 -3 -68 -6 -27 -5 -31
-3 -35 20 -5 23 -2 25 36 29 104 9 106 9 106 -18z m2217 11 c1 -1 -1 -12 -4
-25 -5 -19 -10 -22 -36 -17 -16 3 -42 6 -58 6 -25 0 -29 4 -29 26 0 26 0 26
63 19 34 -4 63 -8 64 -9z m-2011 -52 c-48 -141 15 -236 84 -127 17 26 30 41
30 34 0 -24 -39 -77 -65 -89 -29 -13 -59 -3 -69 24 -11 29 -6 109 10 163 8 29
18 51 21 48 3 -3 -2 -27 -11 -53z m1689 -65 c0 -94 -2 -102 -24 -120 -13 -10
-28 -19 -33 -19 -19 0 -68 59 -68 82 1 19 3 17 16 -12 17 -39 30 -50 60 -50
33 0 48 47 41 133 -2 39 -8 81 -12 92 -7 17 -6 18 6 7 10 -9 14 -40 14 -113z
m-1630 81 c3 -5 1 -10 -4 -10 -6 0 -11 5 -11 10 0 6 2 10 4 10 3 0 8 -4 11
-10z m1575 -5 c0 -8 -4 -15 -10 -15 -5 0 -7 7 -4 15 4 8 8 15 10 15 2 0 4 -7
4 -15z m-35 -5 c3 -5 1 -10 -4 -10 -6 0 -11 5 -11 10 0 6 2 10 4 10 3 0 8 -4
11 -10z m515 -167 c0 -32 5 -53 13 -56 6 -3 4 -6 -7 -6 -42 -2 -126 -90 -126
-133 0 -25 28 -48 58 -47 26 0 25 1 -7 13 -19 7 -37 18 -39 24 -5 16 35 80 59
93 18 9 19 7 17 -25 -1 -23 -7 -36 -16 -36 -7 0 -10 -5 -6 -11 4 -8 9 -8 17 0
15 15 44 14 51 -1 3 -7 4 -4 3 7 -2 15 -9 19 -27 18 -22 -2 -23 -1 -7 8 14 8
15 14 6 31 -8 16 -8 22 2 29 26 16 61 -19 80 -80 7 -25 7 -25 8 5 1 18 -10 47
-24 68 -28 41 -32 54 -11 37 10 -8 16 -9 21 -2 8 15 54 -32 51 -53 -1 -8 -5
-18 -8 -22 -4 -3 -4 -12 -1 -20 3 -8 1 -14 -5 -14 -5 0 -12 -9 -15 -20 -4 -14
3 -26 23 -40 15 -11 39 -39 53 -63 24 -42 45 -122 30 -115 -4 2 -54 27 -110
56 -56 28 -133 62 -171 75 -41 14 -67 28 -64 35 2 7 -3 12 -10 12 -14 0 -18
36 -7 55 4 6 23 82 44 170 20 88 39 166 41 174 3 9 20 -10 44 -50 33 -53 40
-73 40 -116z m-2445 -13 c20 -85 43 -162 51 -171 11 -12 12 -19 4 -24 -7 -4
-10 -16 -7 -26 3 -12 0 -19 -10 -19 -9 0 -13 -6 -10 -14 4 -10 -6 -15 -32 -19
-50 -6 -193 -65 -256 -105 -27 -17 -51 -27 -53 -22 -2 5 12 42 32 82 24 51 44
78 65 90 30 16 42 38 21 38 -5 0 -10 7 -10 15 0 8 -4 15 -10 15 -5 0 -7 7 -4
15 4 8 2 15 -3 15 -8 0 -9 17 -4 70 1 17 51 24 51 8 0 -6 5 -6 14 1 20 16 27
-7 10 -34 -6 -11 -15 -31 -18 -45 -7 -24 -6 -24 9 2 20 35 53 54 68 39 8 -8 8
-14 -1 -23 -16 -16 -15 -25 4 -32 11 -4 15 -2 11 7 -3 8 -1 20 3 28 7 11 14 9
34 -10 32 -30 49 -76 33 -90 -7 -5 -33 -11 -57 -14 l-45 -4 51 -1 c56 -2 74 9
74 47 0 31 -90 121 -121 121 -16 0 -19 3 -11 13 5 6 9 37 9 67 -1 47 4 62 33
105 18 27 35 45 37 39 1 -5 19 -79 38 -164z m137 145 c5 -25 5 -25 -68 -25
-67 0 -74 2 -74 19 0 15 8 21 38 24 93 10 99 8 104 -18z m2142 19 c36 -5 46
-11 46 -25 0 -17 -8 -19 -66 -19 -56 0 -65 2 -60 16 3 9 6 20 6 25 0 11 12 11
74 3z m-319 -21 c-4 -10 -11 -40 -15 -68 -7 -44 -8 -46 -9 -14 -1 35 16 99 26
99 3 0 2 -8 -2 -17z m-1571 -89 c-7 -40 -9 -40 -18 1 -5 23 -4 27 4 15 9 -12
11 -10 7 10 -2 14 -8 34 -11 45 -4 11 0 8 9 -8 11 -19 14 -38 9 -63z m13 64
c-3 -8 -6 -5 -6 6 -1 11 2 17 5 13 3 -3 4 -12 1 -19z m1567 -47 c-4 -23 -9
-40 -11 -37 -3 3 -2 23 2 46 4 23 9 39 11 37 3 -2 2 -23 -2 -46z m-1826 16 c6
-5 12 -18 12 -31 0 -22 -2 -22 -66 -14 -37 4 -68 9 -69 10 -1 2 -6 13 -9 25
-7 21 -5 22 56 20 35 -2 69 -6 76 -10z m2172 -1 c-1 -27 -21 -39 -74 -44 -58
-5 -66 2 -51 41 7 18 125 21 125 3z m-2602 -109 l-10 -68 -32 6 c-55 11 -66
16 -66 29 0 23 27 38 52 30 20 -6 21 -5 10 9 -15 18 -3 50 26 66 27 15 31 1
20 -72z m2262 36 c-11 -17 -11 -17 -6 0 3 10 7 26 7 35 1 15 2 15 6 0 2 -10
-1 -25 -7 -35z m679 20 c20 -24 20 -27 5 -45 -19 -20 -13 -23 15 -8 14 7 23 5
36 -10 20 -23 12 -40 -19 -40 -13 0 -29 -7 -36 -15 -20 -24 -27 -7 -35 73 -8
79 0 89 34 45z m-2292 -5 c-3 -8 -6 -5 -6 6 -1 11 2 17 5 13 3 -3 4 -12 1 -19z
m-231 -14 c24 -3 33 -11 37 -30 4 -24 4 -25 -42 -18 -77 12 -96 19 -99 40 -3
21 14 22 104 8z m2164 -9 c0 -18 -26 -29 -87 -39 -48 -7 -47 -8 -33 28 9 24
15 26 65 26 43 0 55 -3 55 -15z m530 -8 c8 -7 24 -22 34 -35 19 -22 19 -22 -5
-48 -21 -22 -21 -24 -4 -18 11 4 26 12 33 17 10 8 20 3 39 -16 22 -22 24 -28
13 -41 -7 -9 -24 -16 -38 -16 -13 0 -30 -7 -37 -17 -23 -31 -42 -7 -60 74 -9
43 -19 86 -21 96 -6 20 23 23 46 4z m-3265 -19 c-33 -143 -45 -191 -49 -195
-2 -3 -9 5 -16 16 -6 12 -20 21 -31 21 -28 0 -59 18 -59 34 0 23 44 56 60 46
8 -5 21 -10 29 -10 11 0 11 4 -2 18 -15 17 -14 21 14 55 35 42 62 50 54 15z
m807 -25 c29 -26 18 -83 -16 -83 -5 0 -2 6 8 13 37 27 -2 96 -41 71 -10 -6
-21 -22 -24 -35 -6 -19 -7 -20 -8 -5 -1 23 26 56 47 56 9 0 24 -7 34 -17z
m-243 -9 c42 -5 50 -10 56 -31 3 -14 5 -27 3 -28 -2 -1 -32 5 -68 14 -55 14
-66 20 -68 40 -3 18 0 22 12 18 9 -4 38 -9 65 -13z m1851 3 c-31 -16 -39 -56
-14 -74 10 -7 13 -13 8 -13 -17 0 -34 23 -34 46 0 27 25 54 48 54 12 0 9 -4
-8 -13z m303 -7 c-7 -25 -6 -24 -71 -44 l-53 -15 3 27 c3 24 9 28 58 39 30 6
58 12 62 12 3 1 4 -8 1 -19z m-253 -57 c-11 -17 -11 -17 -6 0 3 10 6 24 7 30
0 9 2 9 5 0 3 -7 0 -20 -6 -30z m739 -53 c18 -41 31 -86 29 -99 -4 -31 -60
-71 -97 -71 -25 1 -25 2 14 36 l40 36 -39 -16 c-48 -20 -52 -16 -61 72 -4 36
-10 72 -13 80 -3 9 -1 13 5 9 6 -4 14 -32 18 -63 8 -66 19 -101 28 -88 3 5 -1
36 -9 69 -21 90 -15 109 10 31 12 -38 27 -71 34 -74 8 -2 6 12 -7 45 -23 59
-37 122 -24 108 6 -5 20 -37 33 -70 24 -63 36 -82 45 -73 3 3 -8 34 -25 69
-29 62 -40 103 -21 84 5 -6 23 -44 40 -85z m-3163 42 c-8 -22 -23 -58 -35 -82
-25 -52 -25 -51 -7 -44 8 3 27 41 42 85 16 43 32 79 37 79 5 0 5 -10 1 -22 -4
-13 -13 -43 -19 -68 -7 -25 -16 -53 -20 -62 -4 -11 -3 -18 4 -18 5 0 15 18 21
40 5 22 15 58 20 80 20 77 27 39 8 -41 -12 -51 -16 -85 -10 -91 6 -6 14 21 22
71 7 45 16 81 21 81 11 0 11 6 -1 -66 -6 -32 -13 -74 -16 -92 -5 -32 -6 -33
-27 -20 -12 8 -31 17 -42 21 -19 6 -19 6 -1 -6 10 -7 28 -20 40 -29 21 -17 21
-17 -9 -18 -42 0 -95 34 -95 62 0 28 60 178 71 178 5 0 2 -17 -5 -38z m503 8
c20 -5 48 -12 64 -15 22 -4 27 -11 27 -36 0 -29 -1 -30 -32 -24 -59 13 -77 24
-93 55 -17 34 -17 34 34 20z m222 -8 c-7 -2 -18 1 -23 6 -8 8 -4 9 13 5 13 -4
18 -8 10 -11z m1939 8 c0 -15 -37 -49 -63 -59 -66 -25 -68 -25 -61 6 9 36 4
32 60 47 64 18 64 18 64 6z m-1891 -46 c29 -21 71 -109 70 -149 0 -23 -5 -16
-18 30 -22 75 -40 104 -69 112 -44 11 -57 -17 -56 -115 0 -55 -2 -76 -6 -57
-19 77 -6 157 27 183 21 15 24 15 52 -4z m1647 -25 c15 -17 19 -38 21 -108 l1
-86 -7 80 c-5 44 -11 88 -16 98 -9 22 -51 33 -69 17 -17 -13 -46 -94 -46 -127
0 -13 -4 -23 -9 -23 -5 0 -5 20 0 45 20 108 78 156 125 104z m990 -118 c39
-85 40 -92 16 -114 -24 -22 -134 -60 -143 -50 -9 11 -53 242 -47 249 3 2 18
-47 33 -111 15 -64 31 -118 35 -120 19 -12 15 27 -11 120 -16 55 -29 108 -29
118 0 43 18 8 53 -104 32 -101 40 -119 52 -109 12 10 11 18 -7 53 -33 66 -69
180 -59 190 5 5 11 -4 16 -20 10 -43 87 -203 96 -203 15 0 11 12 -42 117 -28
56 -48 107 -44 113 9 14 35 -27 81 -129z m-3586 121 c0 -5 -24 -57 -54 -116
-29 -58 -49 -109 -44 -112 13 -8 12 -10 64 107 25 57 50 108 55 114 20 20 7
-24 -36 -124 -49 -113 -51 -121 -32 -121 8 0 29 46 52 111 37 103 55 139 55
106 0 -8 -17 -61 -39 -118 -21 -57 -37 -107 -34 -111 9 -16 33 -7 33 11 0 28
50 194 61 206 7 7 8 5 5 -5 -3 -8 -17 -66 -32 -128 -26 -113 -26 -114 -53
-107 -62 16 -121 48 -121 66 0 23 101 229 112 229 5 0 8 -4 8 -8z m930 -32 c0
-4 -6 -10 -13 -13 -7 -3 -13 3 -13 13 0 10 6 16 13 13 7 -3 13 -9 13 -13z
m1873 5 c1 -5 -22 -23 -50 -38 -47 -25 -53 -26 -53 -10 0 26 11 39 45 51 35
12 55 11 58 -3z m-2032 -13 c12 -13 20 -52 11 -52 -20 0 -102 52 -96 62 6 10
74 2 85 -10z m176 -4 c-3 -8 -6 -5 -6 6 -1 11 2 17 5 13 3 -3 4 -12 1 -19z
m1632 -6 c0 -14 -2 -13 -9 3 -5 11 -9 15 -9 9 -1 -7 -9 -15 -18 -18 -15 -6
-15 -5 1 13 21 23 36 19 35 -7z m245 -21 c6 -8 -135 -123 -142 -116 -2 2 1 17
5 35 7 26 20 39 62 61 58 31 67 34 75 20z m-2083 -26 c51 -26 63 -41 57 -70
-2 -14 -15 -8 -66 29 -35 26 -60 51 -57 56 8 14 9 13 66 -15z m216 -7 c-3 -8
-6 -5 -6 6 -1 11 2 17 5 13 3 -3 4 -12 1 -19z m-32 2 c3 -5 1 -10 -4 -10 -6 0
-11 5 -11 10 0 6 2 10 4 10 3 0 8 -4 11 -10z m1906 -49 c-72 -83 -76 -85 -113
-75 l-32 9 54 40 c104 78 115 85 128 85 8 0 -9 -26 -37 -59z m-297 33 c3 -8 2
-12 -4 -9 -6 3 -10 10 -10 16 0 14 7 11 14 -7z m36 1 c0 -8 -4 -15 -10 -15 -5
0 -7 7 -4 15 4 8 8 15 10 15 2 0 4 -7 4 -15z m352 9 c6 -5 -1 -18 -57 -111
-20 -32 -37 -39 -69 -27 -12 5 -2 21 46 75 60 68 69 75 80 63z m-2284 -64 c54
-61 58 -80 19 -80 -16 0 -32 16 -60 60 -34 55 -40 80 -19 80 4 0 31 -27 60
-60z m104 -3 c26 -17 48 -35 48 -39 0 -7 -69 -23 -73 -17 -1 2 -22 26 -46 53
-34 37 -40 50 -30 57 9 5 22 3 34 -7 11 -8 41 -29 67 -47z m2235 45 c16 -10
-48 -136 -72 -140 -33 -7 -38 14 -12 54 13 22 31 51 41 67 17 28 24 31 43 19z
m-2407 -64 c19 -33 34 -64 33 -67 -2 -3 -13 -6 -25 -6 -27 0 -95 114 -75 127
23 15 32 7 67 -54z m2465 13 c-20 -81 -60 -133 -80 -102 -10 17 57 140 72 134
10 -4 12 -14 8 -32z m-2536 -32 c32 -63 32 -79 3 -79 -12 0 -25 20 -41 61 -21
51 -22 62 -10 70 8 5 15 9 16 9 1 0 15 -28 32 -61z m2596 -8 c-16 -92 -31
-113 -64 -92 -13 8 -12 16 3 53 10 24 22 53 27 65 6 15 14 21 25 16 12 -4 14
-14 9 -42z m-2657 -23 c17 -48 19 -64 10 -70 -27 -17 -43 -2 -56 51 -24 99 11
114 46 19z m-84 20 c28 -105 28 -112 5 -131 -12 -9 -23 -16 -25 -14 -2 2 -8
34 -13 72 -8 52 -7 71 2 77 17 11 27 10 31 -4z m2804 -17 c2 -14 1 -48 -3 -77
-6 -52 -7 -53 -31 -42 -28 13 -28 13 -12 90 9 44 16 58 28 56 8 -2 17 -14 18
-27z m-2892 -197 l-36 -47 0 39 c1 79 20 179 38 192 16 12 18 7 25 -62 l8 -75
-35 -47z m2971 74 c6 -57 10 -104 9 -105 -1 -1 -16 16 -34 38 -33 39 -34 40
-27 114 7 67 9 73 25 65 13 -7 19 -31 27 -112z m120 -230 c9 -14 31 -128 32
-165 1 -19 -4 -23 -27 -23 -27 0 -29 3 -45 83 -23 109 -22 117 7 117 14 0 28
-6 33 -12z m-3183 -35 c-22 -127 -30 -148 -54 -145 -13 1 -26 4 -28 7 -2 2 1
42 8 89 l12 86 34 0 c35 0 35 0 28 -37z m82 -18 c-3 -30 -11 -77 -17 -105 -10
-47 -12 -50 -37 -44 -15 4 -29 8 -30 10 -2 1 4 46 14 98 18 95 18 96 47 96
l30 0 -7 -55z m3036 -44 c20 -101 17 -114 -27 -109 -20 3 -25 21 -49 171 -6
38 -6 38 25 35 32 -3 32 -3 51 -97z m140 87 c9 -8 21 -42 27 -79 16 -96 16
-99 -16 -90 -25 7 -29 14 -40 77 -6 38 -12 77 -12 87 -1 20 18 22 41 5z
m-3348 -30 c-23 -134 -23 -136 -55 -140 -28 -4 -30 -3 -24 21 4 14 11 50 16
80 9 55 20 71 51 71 14 0 16 -6 12 -32z m242 24 c9 -5 8 -30 -2 -97 -7 -49
-14 -96 -14 -102 0 -15 -19 -17 -39 -4 -13 8 -13 22 -2 93 18 122 23 133 57
110z m2869 -29 c3 -21 11 -66 16 -100 12 -67 9 -78 -20 -86 -20 -5 -21 -4 -41
137 -8 54 -8 71 2 78 25 16 37 7 43 -29z m325 -22 c6 -20 13 -62 17 -95 6 -57
6 -58 -15 -45 -14 9 -24 31 -31 73 -7 34 -14 73 -17 88 -5 23 -2 26 15 21 13
-3 24 -19 31 -42z m-3520 12 c-1 -49 -25 -132 -43 -150 -16 -16 -17 -16 -17
14 0 43 20 135 32 151 17 20 28 14 28 -15z m393 14 c16 -11 16 -21 6 -115 -12
-105 -18 -115 -53 -89 -16 12 -17 19 -7 66 6 28 11 67 11 86 0 37 8 65 19 65
4 0 15 -6 24 -13z m2732 -34 c3 -27 10 -74 14 -106 8 -56 7 -59 -16 -70 -12
-5 -25 -8 -28 -6 -2 3 -10 49 -16 104 -11 91 -10 99 7 112 28 20 32 16 39 -34z
m-2638 -56 c-3 -23 -9 -66 -12 -94 -5 -40 -11 -53 -23 -53 -40 1 -43 12 -32
106 5 49 10 95 10 102 0 9 8 9 31 -4 29 -14 31 -18 26 -57z m2567 -14 c3 -43
9 -88 12 -100 5 -18 1 -23 -20 -29 -15 -3 -29 -4 -32 -2 -2 3 -10 45 -16 93
-11 82 -11 88 7 101 35 26 42 17 49 -63z m-2489 -20 c20 -41 7 -76 -35 -98
-18 -9 -33 -15 -35 -13 -2 2 1 40 7 85 10 76 12 81 29 70 11 -7 26 -26 34 -44z
m714 3 c13 -42 13 -51 0 -74 -19 -35 -47 -38 -89 -10 -36 24 -100 102 -100
120 0 6 18 -14 40 -44 40 -57 95 -93 124 -82 24 9 24 70 -1 118 -11 22 -12 27
-2 24 8 -3 20 -26 28 -52z m946 1 c-17 -57 -7 -97 25 -97 25 0 95 62 127 113
14 22 27 36 30 33 9 -9 -35 -72 -82 -115 -44 -41 -75 -50 -105 -31 -18 11 -19
74 -1 118 19 47 23 35 6 -21z m-995 -2 c22 -32 28 -50 22 -61 -8 -15 -10 -15
-15 0 -5 11 -3 15 4 10 7 -4 10 -1 7 6 -2 7 -12 14 -22 16 -12 2 -16 -2 -12
-12 10 -25 -3 -15 -19 16 -10 20 -12 29 -4 28 6 -2 13 2 16 9 3 8 -3 11 -16 8
-11 -2 -24 1 -27 7 -4 6 -2 8 4 4 6 -3 13 -2 17 4 9 15 12 13 45 -35z m1746
-30 c8 -69 8 -75 -8 -75 -26 0 -58 36 -58 66 0 25 34 84 49 84 4 0 11 -34 17
-75z m-662 44 c9 -9 -39 -82 -56 -85 -11 -1 -15 3 -11 14 5 11 3 13 -8 7 -8
-5 -11 -5 -6 1 5 5 14 9 20 9 5 0 12 6 15 14 3 9 0 11 -8 6 -8 -5 -11 -4 -6 3
3 6 16 9 27 7 13 -3 19 0 16 8 -3 7 -10 11 -16 9 -7 -1 -10 2 -7 7 6 9 31 9
40 0z m-108 -125 c18 -14 18 -15 -3 -4 -46 22 -85 -32 -50 -70 10 -12 9 -12
-5 -1 -25 19 -22 57 4 75 28 20 30 20 54 0z m-862 -2 c2 -4 -11 -6 -29 -4 -30
4 -35 1 -41 -22 -7 -30 9 -56 36 -56 20 0 36 16 43 45 4 19 5 19 6 -1 2 -31
-33 -58 -63 -50 -53 13 -41 96 14 96 16 0 31 -4 34 -8z m-18 -42 c0 -9 -7 -16
-16 -16 -9 0 -16 7 -16 16 0 9 7 16 16 16 9 0 16 -7 16 -16z m901 -2 c-3 -8
-6 -5 -6 6 -1 11 2 17 5 13 3 -3 4 -12 1 -19z m-119 -34 c72 -50 -63 -193
-200 -209 l-43 -5 38 10 c100 26 217 114 217 163 0 32 -31 51 -68 43 -20 -5
-23 -4 -12 4 21 14 42 12 68 -6z m107 6 c-3 -5 -12 -10 -18 -10 -7 0 -6 4 3
10 19 12 23 12 15 0z m-800 -9 c-36 -5 -40 -9 -43 -37 -7 -72 190 -191 257
-155 34 19 25 51 -28 102 -27 26 -40 44 -30 42 33 -9 89 -80 89 -113 0 -60
-78 -63 -183 -8 -70 38 -117 88 -117 126 0 38 17 52 60 51 l35 -2 -40 -6z m21
-44 c1 -11 0 -16 -3 -13 -4 3 -12 1 -19 -5 -13 -10 -32 6 -20 18 3 4 6 1 6 -6
0 -9 4 -9 14 1 12 11 11 14 -3 20 -13 7 -13 7 3 5 11 -1 20 -10 22 -20z m39
13 c3 -5 1 -10 -4 -10 -6 0 -11 5 -11 10 0 6 2 10 4 10 3 0 8 -4 11 -10z m608
-7 c-3 -7 -10 -13 -17 -14 -6 0 -2 -5 9 -10 19 -8 19 -9 1 -6 -25 3 -30 43 -5
43 9 0 15 -6 12 -13z m-583 -34 c0 -6 -4 -7 -10 -4 -5 3 -10 11 -10 16 0 6 5
7 10 4 6 -3 10 -11 10 -16z m387 -14 c-43 -41 -55 -78 -36 -102 12 -14 12 -16
-1 -11 -17 5 -24 30 -16 61 6 25 63 87 79 87 5 0 -6 -16 -26 -35z m117 20 c-4
-8 -8 -15 -10 -15 -2 0 -4 7 -4 15 0 8 4 15 10 15 5 0 7 -7 4 -15z m-455 -24
c-7 -2 7 -14 31 -26 24 -12 44 -29 46 -38 2 -13 -2 -15 -16 -7 -25 13 -33 13
-23 -2 4 -7 -5 -5 -20 5 -15 10 -32 15 -36 12 -10 -6 -9 14 2 32 4 6 2 13 -5
15 -6 2 -12 11 -14 20 -2 14 2 15 23 5 15 -7 20 -13 12 -16z m-1099 -3 c0 -13
-3 -40 -6 -60 -6 -34 -10 -38 -35 -38 -25 0 -29 4 -29 29 0 16 3 43 6 60 6 26
11 31 35 31 23 0 29 -4 29 -22z m74 -37 c-12 -82 -16 -89 -42 -80 -21 8 -22
13 -17 61 9 74 10 76 40 71 25 -5 26 -8 19 -52z m1472 26 c5 -9 4 -9 -7 1 -18
17 -34 15 -20 -2 8 -10 9 -16 1 -21 -6 -3 -7 -11 -4 -17 4 -7 2 -8 -5 -4 -6 4
-24 -2 -40 -13 -35 -25 -74 -19 -44 6 17 14 17 14 1 9 -31 -9 -19 3 22 24 23
12 39 16 38 9 -2 -6 2 -13 8 -16 7 -2 11 7 9 26 -2 27 0 29 16 21 10 -6 21
-16 25 -23z m-1636 -4 c0 -46 -11 -73 -29 -73 -16 0 -16 5 -7 50 11 54 36 70
36 23z m243 2 c-11 -116 -15 -135 -31 -135 -39 1 -43 12 -30 89 12 68 13 72
38 69 18 -2 24 -8 23 -23z m1467 16 c0 -5 -7 -11 -14 -14 -10 -4 -13 -1 -9 9
6 15 23 19 23 5z m865 -64 c11 -68 11 -69 -13 -78 -13 -5 -25 -9 -27 -9 -2 0
-6 18 -9 40 -3 22 -9 58 -12 81 -6 40 -5 40 22 37 26 -3 29 -7 39 -71z m69 43
c3 -16 8 -43 12 -59 4 -23 1 -29 -18 -34 -27 -8 -28 -7 -39 40 -15 66 -12 83
15 83 19 0 26 -7 30 -30z m90 -17 c3 -25 5 -47 4 -48 -2 -1 -15 -5 -30 -9 -19
-4 -28 -2 -28 6 -1 7 -5 32 -9 56 l-8 42 32 0 c31 0 33 -2 39 -47z m55 1 c13
-50 10 -60 -14 -51 -9 4 -15 19 -15 36 0 16 -3 36 -6 45 -4 10 -1 16 9 16 9 0
19 -17 26 -46z m-2476 -53 c-2 -46 -4 -86 -7 -88 -2 -2 -16 -1 -30 3 -26 6
-27 8 -21 63 11 103 15 112 38 109 21 -3 22 -8 20 -87z m828 72 c11 -15 11
-16 0 -6 -7 6 -19 9 -26 7 -7 -3 -16 -1 -20 5 -11 19 32 12 46 -6z m529 13 c0
-3 -4 -8 -10 -11 -5 -3 -10 -1 -10 4 0 6 5 11 10 11 6 0 10 -2 10 -4z m823
-53 c4 -32 10 -68 13 -80 5 -18 0 -25 -20 -34 -14 -7 -28 -10 -30 -8 -8 7 -25
162 -20 171 3 4 16 8 28 8 21 0 24 -6 29 -57z m-2101 24 c2 -26 -14 -145 -21
-156 -5 -8 -16 -11 -25 -8 -14 6 -16 17 -11 74 10 107 12 113 36 105 11 -5 21
-11 21 -15z m2022 -29 c3 -24 7 -63 8 -88 3 -39 0 -45 -18 -48 -19 -3 -22 3
-28 55 -4 32 -9 70 -12 85 -5 25 1 31 38 37 4 0 9 -18 12 -41z m-764 28 c0 -2
-7 -7 -16 -10 -8 -3 -12 -2 -9 4 6 10 25 14 25 6z m-1192 -19 c7 -8 7 -29 1
-62 -16 -89 -18 -95 -40 -95 -20 0 -21 3 -15 68 4 37 10 75 12 85 6 20 27 22
42 4z m1886 -19 c3 -13 8 -49 11 -81 6 -57 6 -59 -17 -55 -20 3 -25 12 -36 68
-11 59 -11 66 5 77 24 18 32 16 37 -9z m-1002 -20 c-17 -17 -15 -58 5 -80 9
-10 11 -18 6 -18 -19 0 -36 30 -35 61 1 30 20 64 30 54 3 -3 0 -11 -6 -17z
m108 -43 c0 -31 -15 -55 -34 -55 -5 0 -2 8 7 18 19 20 23 67 7 77 -5 3 -10 12
-10 18 1 27 30 -29 30 -58z m-925 14 c8 -23 -9 -55 -36 -70 -20 -10 -20 -9
-14 38 10 71 13 78 30 63 8 -6 17 -20 20 -31z m862 -46 c-2 -16 -4 -3 -4 27 0
30 2 43 4 28 2 -16 2 -40 0 -55z m897 9 l6 -43 -30 16 c-34 18 -39 48 -13 77
20 23 27 13 37 -50z m-913 -71 c3 -7 22 -15 43 -17 32 -3 37 -1 31 14 -5 13
-3 14 6 5 22 -22 -20 -58 -66 -58 -39 0 -75 26 -75 53 0 23 51 26 61 3z m-46
-71 c4 -6 12 -7 18 -3 7 3 0 -6 -15 -21 -15 -15 -33 -46 -40 -68 l-14 -40 -13
25 c-12 23 -11 30 13 71 27 46 39 55 51 36z m153 -12 c11 -13 26 -36 32 -52 9
-24 7 -32 -7 -48 -16 -18 -17 -18 -29 23 -7 22 -22 51 -34 64 -16 17 -18 24
-8 28 21 9 24 8 46 -15z m-115 -15 c-16 -6 -17 -63 -1 -63 6 0 3 -6 -8 -14
-14 -11 -21 -11 -27 -3 -5 7 -6 -1 -2 -18 4 -16 11 -31 16 -33 12 -5 12 -112
0 -112 -29 0 -54 78 -45 143 6 48 44 108 67 106 8 0 8 -2 0 -6z m85 -31 c8
-24 -23 -11 -35 14 -12 25 -11 25 9 12 12 -8 24 -20 26 -26z m-18 -42 c0 -17
-2 -19 -14 -8 -14 13 -12 28 5 28 5 0 9 -9 9 -20z m36 -6 c7 -28 0 -107 -12
-138 -5 -14 -4 -17 4 -12 7 4 15 25 18 46 6 34 8 37 24 28 16 -11 17 -16 4
-57 -7 -24 -27 -58 -43 -75 -30 -30 -31 -30 -45 -11 -13 18 -12 21 7 31 19 11
21 19 18 113 -2 66 1 101 8 101 6 0 14 -12 17 -26z m-208 -42 c3 -16 -2 -22
-16 -22 -21 0 -36 25 -26 41 10 17 39 5 42 -19z m287 3 c0 -13 -8 -21 -22 -23
-17 -3 -23 2 -23 16 0 10 3 22 7 26 13 13 38 1 38 -19z m-118 -107 c-2 -18 -4
-4 -4 32 0 36 2 50 4 33 2 -18 2 -48 0 -65z m-110 -20 c10 -11 25 -23 34 -27
14 -5 14 -8 -1 -24 -17 -18 -19 -17 -54 17 -40 40 -56 97 -35 122 11 14 14 10
25 -26 7 -23 21 -51 31 -62z m88 -73 c0 -13 -8 -21 -22 -23 -17 -3 -23 2 -23
16 0 10 3 22 7 26 13 13 38 1 38 -19z"/>
<path d="M4810 4780 c9 -16 15 -18 31 -10 25 14 16 30 -17 30 -22 0 -23 -2
-14 -20z"/>
<path d="M4942 4718 c3 -7 13 -15 24 -17 16 -3 17 -1 5 13 -16 19 -34 21 -29
4z"/>
<path d="M4261 4821 c-11 -7 -10 -11 6 -19 20 -11 43 0 43 20 0 11 -31 10 -49
-1z"/>
<path d="M4145 4776 c-18 -13 -18 -14 4 -21 22 -7 40 6 41 28 0 12 -25 8 -45
-7z"/>
<path d="M4037 4709 c-9 -6 -17 -14 -17 -19 0 -16 30 -11 37 5 8 21 1 25 -20
14z"/>
<path d="M4301 4484 c0 -11 3 -14 6 -6 3 7 2 16 -1 19 -3 4 -6 -2 -5 -13z"/>
<path d="M4361 4470 c0 -8 4 -24 9 -35 5 -13 9 -14 9 -5 0 8 -4 24 -9 35 -5
13 -9 14 -9 5z"/>
<path d="M4312 4430 c0 -14 2 -19 5 -12 2 6 2 18 0 25 -3 6 -5 1 -5 -13z"/>
<path d="M4341 4424 c0 -11 3 -14 6 -6 3 7 2 16 -1 19 -3 4 -6 -2 -5 -13z"/>
<path d="M4702 4748 c-14 -14 -16 -54 -4 -62 5 -3 6 8 4 25 -4 29 2 34 38 30
13 -2 13 -1 0 8 -19 14 -24 13 -38 -1z"/>
<path d="M4747 4711 c-4 -17 -3 -21 5 -13 5 5 8 16 6 23 -3 8 -7 3 -11 -10z"/>
<path d="M4236 4734 c-9 -8 -16 -21 -16 -27 0 -7 5 -4 11 6 5 9 18 17 29 17
10 0 21 -8 23 -17 4 -17 5 -17 6 -1 2 27 -34 42 -53 22z"/>
<path d="M4273 4610 c9 -6 17 -18 17 -27 0 -14 -3 -13 -22 3 l-21 19 17 -27
c9 -14 24 -29 32 -32 13 -5 14 0 9 24 -6 29 8 43 18 18 4 -10 6 -10 6 -1 1 14
-5 18 -44 27 -24 5 -26 4 -12 -4z"/>
<path d="M4853 4713 c-7 -2 -13 -9 -13 -15 0 -6 6 -6 15 2 12 10 18 10 33 -1
15 -13 16 -12 3 4 -14 18 -18 19 -38 10z"/>
<path d="M4106 4692 c-4 -6 3 -8 15 -5 12 4 25 0 31 -8 8 -12 9 -11 5 1 -4 17
-42 26 -51 12z"/>
<path d="M4130 4616 c0 -2 8 -10 18 -17 15 -13 16 -12 3 4 -13 16 -21 21 -21
13z"/>
<path d="M4173 4557 c12 -10 15 -17 7 -22 -6 -4 -21 1 -32 12 -21 18 -21 18
-9 -4 12 -24 19 -27 45 -17 22 9 20 21 -6 34 -21 10 -22 10 -5 -3z"/>
<path d="M4181 4424 c0 -11 3 -14 6 -6 3 7 2 16 -1 19 -3 4 -6 -2 -5 -13z"/>
<path d="M4211 4420 c0 -8 4 -24 9 -35 5 -13 9 -14 9 -5 0 8 -4 24 -9 35 -5
13 -9 14 -9 5z"/>
<path d="M4192 4380 c0 -14 2 -19 5 -12 2 6 2 18 0 25 -3 6 -5 1 -5 -13z"/>
<path d="M3986 4614 c-10 -25 -7 -29 8 -9 8 11 19 16 30 12 10 -4 15 -3 11 3
-10 16 -42 12 -49 -6z"/>
<path d="M4038 4473 c7 -3 16 -2 19 1 4 3 -2 6 -13 5 -11 0 -14 -3 -6 -6z"/>
<path d="M4061 4394 c0 -11 3 -14 6 -6 3 7 2 16 -1 19 -3 4 -6 -2 -5 -13z"/>
<path d="M4071 4354 c0 -11 3 -14 6 -6 3 7 2 16 -1 19 -3 4 -6 -2 -5 -13z"/>
<path d="M4965 4629 c-4 -6 -4 -13 -1 -16 3 -4 6 -1 6 5 0 21 30 13 40 -10 5
-14 9 -17 9 -7 2 30 -40 52 -54 28z"/>
<path d="M4791 4434 c0 -11 3 -14 6 -6 3 7 2 16 -1 19 -3 4 -6 -2 -5 -13z"/>
<path d="M4821 4434 c0 -11 3 -14 6 -6 3 7 2 16 -1 19 -3 4 -6 -2 -5 -13z"/>
<path d="M4812 4390 c0 -14 2 -19 5 -12 2 6 2 18 0 25 -3 6 -5 1 -5 -13z"/>
<path d="M4771 4364 c0 -11 3 -14 6 -6 3 7 2 16 -1 19 -3 4 -6 -2 -5 -13z"/>
<path d="M4480 4370 c0 -5 5 -10 11 -10 5 0 7 5 4 10 -3 6 -8 10 -11 10 -2 0
-4 -4 -4 -10z"/>
<path d="M4427 4316 c-4 -10 -5 -21 -2 -24 9 -9 17 6 13 25 -3 17 -4 17 -11
-1z"/>
<path d="M4921 4334 c0 -11 3 -14 6 -6 3 7 2 16 -1 19 -3 4 -6 -2 -5 -13z"/>
<path d="M4661 4494 c0 -11 3 -14 6 -6 3 7 2 16 -1 19 -3 4 -6 -2 -5 -13z"/>
<path d="M4651 4454 c0 -11 3 -14 6 -6 3 7 2 16 -1 19 -3 4 -6 -2 -5 -13z"/>
<path d="M4682 4450 c0 -14 2 -19 5 -12 2 6 2 18 0 25 -3 6 -5 1 -5 -13z"/>
<path d="M4641 4414 c0 -11 3 -14 6 -6 3 7 2 16 -1 19 -3 4 -6 -2 -5 -13z"/>
<path d="M4672 4395 c0 -16 2 -22 5 -12 2 9 2 23 0 30 -3 6 -5 -1 -5 -18z"/>
<path d="M5269 3956 c9 -11 10 -20 1 -36 -11 -20 -10 -21 9 -10 24 12 27 30 9
48 -17 17 -33 15 -19 -2z"/>
<path d="M4366 4188 c-3 -7 -4 -31 -3 -53 2 -36 5 -40 27 -40 23 0 25 3 25 50
0 44 -3 50 -23 53 -12 2 -24 -3 -26 -10z m39 -19 c0 -7 -8 -15 -17 -17 -18 -3
-25 18 -11 32 10 10 28 1 28 -15z m1 -40 c10 -17 -13 -36 -27 -22 -12 12 -4
33 11 33 5 0 12 -5 16 -11z"/>
<path d="M4276 4165 c-11 -30 -6 -54 13 -64 28 -15 54 8 49 44 -2 24 -8 31
-29 33 -17 2 -29 -3 -33 -13z m49 -25 c0 -29 -32 -41 -41 -16 -9 24 4 48 23
44 12 -2 18 -12 18 -28z"/>
<path d="M4170 4146 c-15 -19 -9 -56 12 -69 34 -22 66 41 36 71 -16 16 -33 15
-48 -2z m48 -29 c3 -22 -1 -27 -18 -27 -23 0 -35 22 -26 46 10 25 41 12 44
-19z"/>
<path d="M4573 4188 c-17 -20 -10 -80 10 -92 21 -13 54 15 41 35 -4 8 -8 25
-8 39 -1 28 -27 38 -43 18z m37 -18 c0 -11 -7 -20 -15 -20 -8 0 -15 9 -15 20
0 11 7 20 15 20 8 0 15 -9 15 -20z m0 -50 c0 -11 -7 -20 -15 -20 -8 0 -15 9
-15 20 0 11 7 20 15 20 8 0 15 -9 15 -20z"/>
<path d="M4652 4168 c-25 -25 -6 -68 30 -68 9 0 22 9 28 20 22 40 -26 80 -58
48z m48 -13 c10 -12 10 -18 0 -30 -25 -30 -61 -7 -46 30 3 8 12 15 19 15 8 0
20 -7 27 -15z"/>
<path d="M4761 4146 c-7 -8 -11 -25 -9 -38 2 -18 9 -23 32 -23 36 0 56 27 40
53 -14 22 -48 27 -63 8z m53 -12 c7 -19 -10 -44 -31 -44 -17 0 -27 24 -19 45
7 20 42 19 50 -1z"/>
<path d="M4390 4040 c0 -5 5 -10 11 -10 5 0 7 5 4 10 -3 6 -8 10 -11 10 -2 0
-4 -4 -4 -10z"/>
<path d="M4430 4040 c0 -5 5 -10 11 -10 5 0 7 5 4 10 -3 6 -8 10 -11 10 -2 0
-4 -4 -4 -10z"/>
<path d="M4460 4040 c0 -5 5 -10 10 -10 6 0 10 5 10 10 0 6 -4 10 -10 10 -5 0
-10 -4 -10 -10z"/>
<path d="M4500 4040 c0 -5 5 -10 10 -10 6 0 10 5 10 10 0 6 -4 10 -10 10 -5 0
-10 -4 -10 -10z"/>
<path d="M4540 4040 c0 -5 5 -10 11 -10 5 0 7 5 4 10 -3 6 -8 10 -11 10 -2 0
-4 -4 -4 -10z"/>
<path d="M4580 4034 c0 -8 5 -12 10 -9 6 4 8 11 5 16 -9 14 -15 11 -15 -7z"/>
<path d="M4315 4030 c-3 -5 -1 -10 4 -10 6 0 11 5 11 10 0 6 -2 10 -4 10 -3 0
-8 -4 -11 -10z"/>
<path d="M4350 4030 c0 -5 5 -10 10 -10 6 0 10 5 10 10 0 6 -4 10 -10 10 -5 0
-10 -4 -10 -10z"/>
<path d="M4615 4030 c3 -5 8 -10 11 -10 2 0 4 5 4 10 0 6 -5 10 -11 10 -5 0
-7 -4 -4 -10z"/>
<path d="M4650 4030 c0 -5 5 -10 10 -10 6 0 10 5 10 10 0 6 -4 10 -10 10 -5 0
-10 -4 -10 -10z"/>
<path d="M4246 4021 c-4 -5 -2 -12 3 -15 5 -4 12 -2 15 3 4 5 2 12 -3 15 -5 4
-12 2 -15 -3z"/>
<path d="M4280 4020 c0 -5 5 -10 10 -10 6 0 10 5 10 10 0 6 -4 10 -10 10 -5 0
-10 -4 -10 -10z"/>
<path d="M4215 4010 c-3 -5 -1 -10 4 -10 6 0 11 5 11 10 0 6 -2 10 -4 10 -3 0
-8 -4 -11 -10z"/>
<path d="M4720 4009 c0 -5 5 -7 10 -4 6 3 10 8 10 11 0 2 -4 4 -10 4 -5 0 -10
-5 -10 -11z"/>
<path d="M4755 4011 c-3 -5 -1 -12 5 -16 5 -3 10 1 10 9 0 18 -6 21 -15 7z"/>
<path d="M4180 4000 c0 -5 5 -10 11 -10 5 0 7 5 4 10 -3 6 -8 10 -11 10 -2 0
-4 -4 -4 -10z"/>
<path d="M4790 4000 c0 -5 5 -10 11 -10 5 0 7 5 4 10 -3 6 -8 10 -11 10 -2 0
-4 -4 -4 -10z"/>
<path d="M4145 3990 c-3 -5 -1 -10 4 -10 6 0 11 5 11 10 0 6 -2 10 -4 10 -3 0
-8 -4 -11 -10z"/>
<path d="M4825 3990 c-3 -5 -1 -10 4 -10 6 0 11 5 11 10 0 6 -2 10 -4 10 -3 0
-8 -4 -11 -10z"/>
<path d="M4850 3970 c0 -5 5 -10 10 -10 6 0 10 5 10 10 0 6 -4 10 -10 10 -5 0
-10 -4 -10 -10z"/>
<path d="M4200 3180 c12 -8 12 -10 1 -10 -8 0 -12 -2 -9 -5 3 -3 13 -2 22 1
14 5 15 9 4 15 -7 5 -17 9 -23 9 -5 0 -3 -5 5 -10z"/>
<path d="M4348 3046 c-26 -7 -89 -38 -140 -69 -125 -75 -181 -99 -240 -101
-43 -1 -53 3 -75 28 -22 26 -25 36 -20 77 5 43 4 48 -18 53 -54 14 -131 -17
-170 -68 -85 -112 -37 -286 98 -350 l53 -25 13 -183 c6 -101 14 -216 18 -255
l6 -73 308 0 309 0 0 475 c0 442 -1 475 -17 483 -34 17 -78 20 -125 8z m-30
-239 l47 -22 -136 -5 c-101 -4 -142 -9 -156 -20 -11 -8 -7 -4 9 10 32 29 145
71 171 63 11 -3 40 -15 65 -26z m-154 -46 c5 12 7 12 12 0 5 -11 8 -11 16 0 8
12 10 12 15 0 5 -11 7 -11 14 0 7 12 9 12 9 0 0 -11 3 -11 15 -1 12 10 15 10
15 -1 0 -11 2 -11 10 1 9 13 11 13 20 0 5 -8 10 -10 10 -5 0 6 9 11 20 11 11
0 20 -5 20 -11 0 -5 4 -3 10 5 11 18 25 6 16 -16 -4 -11 -13 -14 -29 -10 -12
3 -66 6 -120 6 -83 0 -96 2 -85 14 8 9 15 10 19 4 4 -6 9 -5 13 3z m-64 -23
c-1 -16 -80 -72 -88 -63 -7 6 67 74 81 75 4 0 7 -6 7 -12z m270 -78 c0 -47 -3
-60 -15 -60 -11 0 -15 12 -15 44 0 51 -20 76 -45 56 -9 -8 -15 -30 -15 -56 0
-24 -4 -44 -10 -44 -5 0 -10 20 -10 44 0 51 -20 76 -45 56 -9 -8 -15 -30 -15
-56 0 -24 -4 -44 -10 -44 -5 0 -10 22 -10 49 0 84 -46 77 -53 -7 -3 -42 -4
-40 -5 16 l-2 62 125 0 125 0 0 -60z m-261 -7 c-1 -53 -2 -55 -10 -25 -13 42
-23 41 -15 -2 6 -31 3 -36 -29 -55 -20 -11 -38 -21 -41 -21 -2 0 -4 22 -4 49
0 44 4 52 30 71 26 19 33 20 48 8 15 -11 16 -11 5 3 -7 9 -10 19 -6 22 17 17
23 3 22 -50z m61 -8 c0 -33 -4 -45 -15 -45 -8 0 -15 7 -15 15 0 8 5 15 10 15
6 0 10 9 10 20 0 11 -4 20 -10 20 -5 0 -10 5 -10 10 0 6 7 10 15 10 11 0 15
-12 15 -45z m80 0 c0 -38 -3 -45 -20 -45 -17 0 -20 7 -20 38 0 41 6 52 27 52
9 0 13 -14 13 -45z m80 0 c0 -38 -3 -45 -20 -45 -17 0 -20 7 -20 38 0 41 6 52
27 52 9 0 13 -14 13 -45z m-158 -87 c2 -13 10 -23 18 -23 8 0 16 10 18 23 5
30 39 30 44 0 5 -34 38 -37 38 -4 0 19 5 26 20 26 14 0 20 -7 20 -21 0 -11 8
-23 18 -25 15 -5 17 -20 14 -169 l-3 -165 -37 0 c-20 0 -74 -3 -119 -7 l-83
-6 0 172 c0 107 4 171 10 171 6 0 10 11 10 25 0 32 27 34 32 3z m24 -5 c-10
-10 -19 5 -10 18 6 11 8 11 12 0 2 -7 1 -15 -2 -18z m84 6 c0 -11 -4 -17 -10
-14 -5 3 -10 13 -10 21 0 8 5 14 10 14 6 0 10 -9 10 -21z m88 4 c-4 -22 -22
-20 -26 1 -2 10 3 16 13 16 10 0 15 -7 13 -17z m-261 -15 c-3 -8 -6 -5 -6 6
-1 11 2 17 5 13 3 -3 4 -12 1 -19z m20 0 c-3 -8 -6 -5 -6 6 -1 11 2 17 5 13 3
-3 4 -12 1 -19z m-26 -28 c5 0 9 -68 9 -160 0 -131 -3 -160 -14 -160 -10 0
-16 19 -21 60 -6 56 -16 73 -29 51 -3 -4 -2 -38 2 -75 9 -68 7 -72 -18 -56
-12 8 -13 11 -1 19 9 6 10 11 2 15 -7 5 -11 54 -11 142 l0 135 30 10 c16 6 27
15 24 20 -3 6 -2 18 2 27 6 15 8 14 11 -5 3 -13 9 -23 14 -23z m266 -356 c5
-16 -225 -27 -266 -13 -17 6 -29 14 -27 17 7 12 289 8 293 -4z"/>
<path d="M4050 2660 c0 -5 5 -10 10 -10 6 0 10 5 10 10 0 6 -4 10 -10 10 -5 0
-10 -4 -10 -10z"/>
<path d="M4026 2622 c-4 -18 -5 -36 -2 -39 11 -12 17 5 14 39 l-3 33 -9 -33z"/>
<path d="M4052 2620 c0 -14 2 -19 5 -12 2 6 2 18 0 25 -3 6 -5 1 -5 -13z"/>
<path d="M4220 2650 c0 -11 5 -20 10 -20 6 0 10 9 10 20 0 11 -4 20 -10 20 -5
0 -10 -9 -10 -20z"/>
<path d="M4300 2650 c0 -11 5 -20 10 -20 6 0 10 9 10 20 0 11 -4 20 -10 20 -5
0 -10 -9 -10 -20z"/>
<path d="M4230 2479 c0 -17 4 -28 10 -24 6 3 10 17 10 31 0 13 -4 24 -10 24
-5 0 -10 -14 -10 -31z"/>
<path d="M4160 2399 c0 -17 4 -28 10 -24 6 3 10 17 10 31 0 13 -4 24 -10 24
-5 0 -10 -14 -10 -31z"/>
<path d="M4290 2400 c0 -16 5 -30 10 -30 6 0 10 14 10 30 0 17 -4 30 -10 30
-5 0 -10 -13 -10 -30z"/>
<path d="M4220 2295 c0 -16 6 -25 15 -25 9 0 15 9 15 25 0 16 -6 25 -15 25 -9
0 -15 -9 -15 -25z"/>
<path d="M4544 3040 c-20 -8 -21 -17 -27 -266 -4 -141 -7 -356 -7 -476 l0
-218 310 0 c282 0 310 2 310 17 0 28 30 415 35 459 5 35 10 42 39 52 48 18
111 76 135 125 27 56 28 146 2 203 -31 68 -110 110 -182 99 -36 -6 -37 -7 -32
-45 8 -61 -3 -89 -43 -106 -51 -21 -122 -4 -220 53 -158 93 -204 113 -253 112
-25 0 -55 -4 -67 -9z m188 -397 c35 -31 14 -60 -29 -40 -15 7 -27 6 -36 -1
-14 -12 -57 -5 -57 8 0 16 53 50 78 50 14 0 34 -7 44 -17z m298 -8 c17 -21 10
-26 -44 -29 -57 -3 -73 5 -51 28 21 20 78 21 95 1z m-322 -106 c3 -66 3 -66
-23 -62 -23 5 -25 9 -25 62 0 62 5 73 30 69 11 -2 16 -19 18 -69z m189 56 c8
-22 2 -25 -45 -27 -50 -2 -64 8 -38 28 26 19 75 18 83 -1z m41 -58 c2 -55 0
-67 -13 -67 -12 0 -15 14 -15 71 0 52 3 70 13 67 7 -3 13 -29 15 -71z m62 3
c0 -63 -2 -70 -20 -70 -18 0 -20 7 -20 63 0 66 4 77 27 77 10 0 13 -18 13 -70z
m48 -3 c2 -55 0 -67 -13 -67 -12 0 -15 14 -15 71 0 52 3 70 13 67 7 -3 13 -29
15 -71z m-402 40 c10 -41 1 -102 -16 -102 -11 0 -16 15 -18 63 -2 50 0 62 12
62 9 0 18 -11 22 -23z m114 -35 c0 -63 -4 -74 -26 -65 -9 3 -14 20 -14 48 0
53 8 75 26 75 10 0 14 -15 14 -58z m68 -30 c3 -37 1 -42 -17 -42 -18 0 -21 6
-21 38 0 68 33 71 38 4z m50 0 c3 -37 1 -42 -17 -42 -18 0 -21 6 -21 46 0 38
3 45 18 42 12 -2 18 -15 20 -46z m19 -19 c-2 -16 -4 -5 -4 22 0 28 2 40 4 28
2 -13 2 -35 0 -50z m-235 -55 c-17 -18 -26 -20 -39 -12 -33 21 -26 34 18 34
l43 0 -22 -22z m118 2 c-13 -24 -18 -25 -43 -2 -19 16 -20 16 -14 0 5 -15 1
-18 -23 -18 -27 0 -29 2 -19 18 9 14 25 19 61 21 46 1 48 0 38 -19z m130 -5
c0 -22 -4 -25 -34 -25 -25 0 -38 6 -50 25 l-16 25 50 0 c47 0 50 -2 50 -25z
m172 -5 c28 -25 31 -31 18 -40 -21 -14 -63 -12 -84 3 -18 13 -17 15 9 35 15
12 22 22 16 22 -7 0 -22 -11 -35 -23 -32 -32 -86 -26 -86 9 0 23 3 24 65 24
58 0 68 -3 97 -30z m-488 4 c3 -9 5 -59 4 -112 -1 -53 -3 -78 -5 -54 -5 52
-20 55 -26 5 -2 -21 -4 7 -5 63 -1 55 1 104 5 107 11 11 20 8 27 -9z m226 -13
c5 -11 10 -61 10 -111 0 -80 -2 -91 -16 -86 -9 3 -20 6 -25 6 -10 0 -13 169
-3 194 8 21 21 20 34 -3z m-172 -98 c-2 -58 -7 -88 -15 -91 -10 -3 -13 19 -13
87 0 75 3 91 15 91 13 0 15 -14 13 -87z m92 -3 l0 -90 -40 0 -40 0 0 90 0 90
40 0 40 0 0 -90z m30 6 c0 -47 -4 -88 -10 -91 -6 -4 -10 27 -10 84 0 54 4 91
10 91 6 0 10 -35 10 -84z m140 54 c0 -13 -7 -20 -19 -20 -29 0 -36 -18 -32
-77 2 -34 -1 -53 -8 -53 -7 0 -11 30 -11 85 l0 85 35 0 c28 0 35 -4 35 -20z
m69 11 c25 -16 6 -38 -28 -33 -22 3 -31 10 -31 23 0 21 33 26 59 10z m51 -93
c0 -59 -3 -79 -12 -76 -9 3 -14 32 -16 86 -2 70 -1 81 13 76 12 -5 15 -23 15
-86z m67 50 c-3 -7 -5 -2 -5 12 0 14 2 19 5 13 2 -7 2 -19 0 -25z m-21 -15
c-3 -21 -6 -57 -6 -80 0 -32 -4 -43 -15 -43 -12 0 -15 16 -15 80 0 75 1 80 21
80 19 0 21 -4 15 -37z m-106 8 c0 -6 -5 -13 -10 -16 -15 -9 -91 5 -84 16 7 12
94 12 94 0z m20 -55 c0 -26 -6 -48 -15 -56 -13 -11 -15 -6 -15 37 0 27 3 53 7
56 15 16 23 4 23 -37z m-47 17 c4 -2 7 -22 7 -44 0 -28 -4 -39 -15 -39 -8 0
-15 9 -15 19 0 28 -17 35 -25 11 -10 -32 -25 -13 -25 31 0 41 0 41 33 34 17
-4 35 -9 40 -12z m157 -48 c0 -19 -4 -35 -8 -35 -4 0 -6 16 -4 35 2 19 6 35 8
35 2 0 4 -16 4 -35z"/>
<path d="M4683 2520 c0 -25 2 -35 4 -22 2 12 2 32 0 45 -2 12 -4 2 -4 -23z"/>
<path d="M4923 2525 c0 -22 2 -30 4 -17 2 12 2 30 0 40 -3 9 -5 -1 -4 -23z"/>
<path d="M4970 2525 c0 -19 5 -35 10 -35 6 0 10 16 10 35 0 19 -4 35 -10 35
-5 0 -10 -16 -10 -35z"/>
<path d="M5033 2525 c0 -22 2 -30 4 -17 2 12 2 30 0 40 -3 9 -5 -1 -4 -23z"/>
<path d="M4623 2525 c0 -22 2 -30 4 -17 2 12 2 30 0 40 -3 9 -5 -1 -4 -23z"/>
<path d="M4743 2525 c0 -22 2 -30 4 -17 2 12 2 30 0 40 -3 9 -5 -1 -4 -23z"/>
<path d="M4802 2495 c0 -16 2 -22 5 -12 2 9 2 23 0 30 -3 6 -5 -1 -5 -18z"/>
<path d="M4852 2490 c0 -14 2 -19 5 -12 2 6 2 18 0 25 -3 6 -5 1 -5 -13z"/>
<path d="M4572 2360 c0 -14 2 -19 5 -12 2 6 2 18 0 25 -3 6 -5 1 -5 -13z"/>
<path d="M4802 2345 c0 -16 2 -22 5 -12 2 9 2 23 0 30 -3 6 -5 -1 -5 -18z"/>
<path d="M4682 2350 c0 -14 2 -19 5 -12 2 6 2 18 0 25 -3 6 -5 1 -5 -13z"/>
<path d="M4712 2350 c0 -14 2 -19 5 -12 2 6 2 18 0 25 -3 6 -5 1 -5 -13z"/>
<path d="M4690 2280 c0 -16 5 -30 10 -30 6 0 10 14 10 30 0 17 -4 30 -10 30
-5 0 -10 -13 -10 -30z"/>
<path d="M5052 2300 c0 -19 2 -27 5 -17 2 9 2 25 0 35 -3 9 -5 1 -5 -18z"/>
<path d="M3861 2028 c-5 -13 -20 -34 -34 -47 -21 -19 -36 -24 -82 -23 l-57 0
-19 -44 c-29 -65 -34 -132 -15 -191 46 -138 198 -213 339 -166 67 23 66 24 96
-68 23 -71 70 -144 113 -179 15 -11 73 -41 129 -65 56 -24 116 -58 133 -74
l31 -29 38 32 c20 18 77 50 126 70 49 21 108 50 130 66 42 31 90 104 117 180
35 98 29 92 69 75 102 -42 214 -24 292 48 86 79 109 188 63 294 l-22 52 -52
-1 c-60 -2 -88 13 -113 59 l-18 33 -628 0 -627 0 -9 -22z m1273 -55 c39 -43
46 -46 100 -51 55 -4 59 -7 72 -38 18 -43 18 -135 0 -177 -45 -107 -194 -160
-319 -112 -35 13 -50 15 -60 7 -7 -7 -30 -54 -51 -106 -26 -65 -50 -108 -76
-135 -56 -58 -99 -77 -71 -32 13 20 -5 51 -29 51 -11 0 -20 -5 -20 -12 0 -9
-3 -9 -12 0 -8 8 -8 15 2 27 11 13 11 21 2 36 -16 25 -6 45 13 29 16 -14 55 3
55 23 0 17 -21 43 -40 50 -8 3 25 6 73 6 l88 1 -3 93 -3 92 -132 3 -132 3 -3
132 -3 132 -87 3 -88 3 0 -136 0 -135 -47 0 c-39 1 -45 3 -30 11 10 6 27 9 38
6 18 -5 19 1 19 109 0 107 -1 114 -18 105 -11 -6 -24 -6 -33 0 -29 18 -69 10
-81 -16 -10 -21 -9 -29 5 -43 14 -14 21 -14 37 -5 23 15 35 1 21 -25 -6 -11
-6 -24 0 -33 17 -27 10 -39 -20 -33 -23 5 -32 2 -40 -15 -9 -17 -8 -24 8 -40
20 -20 20 -20 -57 -23 l-77 -3 -3 -92 -3 -93 83 0 c71 -1 81 -3 66 -14 -21
-16 -24 -62 -4 -69 8 -3 24 -3 35 0 25 6 28 -9 6 -27 -14 -12 -14 -15 2 -32
13 -14 14 -21 5 -30 -9 -9 -12 -9 -12 0 0 17 -35 15 -50 -3 -6 -8 -9 -23 -5
-35 6 -19 5 -20 -13 -11 -54 29 -118 133 -143 234 -14 56 -35 66 -91 42 -21
-8 -66 -15 -102 -15 -82 0 -157 37 -201 99 -27 38 -30 51 -30 114 0 46 6 82
16 100 14 25 22 29 65 31 57 1 98 24 122 67 l17 29 598 0 599 0 42 -47z m-564
-138 l0 -135 135 0 135 0 0 -70 0 -70 -140 0 -140 0 0 -135 0 -135 -65 0 -65
0 0 135 0 135 -135 0 -135 0 0 75 0 75 135 0 135 0 0 130 0 130 70 0 70 0 0
-135z m-235 105 c3 -5 15 -10 26 -10 17 0 19 -7 19 -67 0 -38 -5 -75 -10 -83
-5 -8 -10 -12 -10 -7 0 4 -14 0 -30 -8 -32 -17 -50 -13 -50 11 0 17 17 19 22
3 3 -9 10 -9 26 0 23 12 30 55 11 67 -8 4 -8 9 0 17 18 18 13 45 -10 58 -17 9
-23 8 -30 -2 -10 -17 -23 -5 -16 16 7 17 42 21 52 5z m73 -537 l3 -133 84 0
84 0 3 133 3 132 50 3 c40 2 46 0 32 -9 -11 -6 -30 -9 -43 -6 l-24 4 0 -115
c0 -106 1 -114 18 -109 11 2 36 2 57 -2 l39 -6 -86 -33 c-48 -18 -97 -41 -109
-51 -23 -18 -24 -18 -54 4 -16 12 -64 35 -105 51 l-75 29 58 9 57 9 0 105 0
104 -24 -4 c-13 -3 -35 1 -47 9 -22 12 -20 13 26 11 l50 -3 3 -132z m-65 95
c15 -7 30 -23 33 -36 7 -25 -5 -137 -13 -128 -3 3 -19 -2 -35 -10 -31 -16 -48
-12 -48 12 0 17 17 19 22 3 3 -9 10 -9 26 0 23 12 31 55 12 66 -6 4 -5 15 2
30 8 19 8 28 -2 40 -14 17 -40 20 -40 5 0 -5 -4 -10 -10 -10 -5 0 -10 9 -10
20 0 23 23 26 63 8z m367 -8 c0 -11 -4 -20 -10 -20 -5 0 -10 5 -10 10 0 14
-13 12 -35 -4 -16 -12 -17 -18 -7 -40 7 -16 8 -28 2 -31 -19 -11 -11 -54 12
-66 16 -9 23 -9 26 0 5 16 22 14 22 -3 0 -25 -17 -27 -54 -9 -38 20 -43 35
-38 120 3 38 7 50 17 47 7 -3 16 -1 20 5 3 6 17 11 31 11 17 0 24 -5 24 -20z"/>
<path d="M4660 1960 c-8 -5 -25 -7 -37 -3 -23 5 -23 4 -23 -105 l0 -109 63 1
c59 1 62 2 65 27 3 30 -22 46 -43 29 -20 -17 -30 8 -14 37 11 20 11 26 0 33
-9 5 -11 15 -7 26 6 14 9 15 15 5 13 -20 46 -9 49 17 6 42 -32 65 -68 42z m48
-33 c3 -14 -2 -16 -27 -11 -35 7 -52 -16 -33 -46 7 -12 7 -21 0 -28 -15 -15
-6 -53 16 -66 14 -8 20 -8 23 2 7 19 23 14 23 -8 0 -23 -7 -24 -60 -8 -39 13
-40 14 -40 59 0 74 10 109 31 109 10 0 21 5 24 11 10 15 39 6 43 -14z"/>
<path d="M5705 2453 c4 -21 14 -51 23 -68 l17 -30 3 27 c3 25 -31 108 -44 108
-4 0 -3 -17 1 -37z"/>
<path d="M5670 2410 c0 -8 9 -33 19 -55 17 -35 19 -37 20 -15 1 14 -8 39 -19
55 -11 17 -20 23 -20 15z"/>
<path d="M5654 2311 c3 -18 6 -38 6 -43 0 -5 5 -6 10 -3 15 9 12 39 -6 61 -15
18 -15 17 -10 -15z"/>
<path d="M5690 2195 c0 -8 4 -15 10 -15 5 0 7 7 4 15 -4 8 -8 15 -10 15 -2 0
-4 -7 -4 -15z"/>
<path d="M5758 2153 c7 -3 16 -2 19 1 4 3 -2 6 -13 5 -11 0 -14 -3 -6 -6z"/>
<path d="M5840 2144 c0 -22 74 -114 92 -114 12 0 -28 76 -52 100 -19 19 -40
26 -40 14z"/>
<path d="M5750 2132 c0 -5 9 -17 20 -27 23 -21 27 -4 4 19 -17 18 -24 20 -24
8z"/>
<path d="M5810 2117 c0 -12 35 -57 45 -57 3 0 -3 16 -12 35 -17 35 -33 46 -33
22z"/>
<path d="M3260 2441 c-12 -32 -20 -70 -18 -82 4 -22 6 -21 20 11 15 34 33 130
25 130 -3 0 -14 -27 -27 -59z"/>
<path d="M3286 2359 c-16 -41 -15 -62 3 -43 10 10 26 84 18 84 -3 0 -12 -19
-21 -41z"/>
<path d="M3318 2314 c-5 -4 -8 -16 -8 -28 0 -14 3 -17 11 -9 6 6 9 19 7 28 -1
9 -6 13 -10 9z"/>
<path d="M3204 2206 c-3 -8 -4 -21 -1 -28 4 -8 6 -6 6 5 1 18 35 24 46 7 4 -6
11 -8 16 -5 5 4 9 1 9 -5 0 -6 5 -8 10 -5 6 3 10 11 10 16 0 6 -4 7 -10 4 -5
-3 -10 -2 -10 3 0 5 -6 9 -12 10 -7 0 -23 4 -35 7 -16 5 -25 3 -29 -9z"/>
<path d="M3097 2088 c-52 -82 -53 -85 -13 -48 33 31 66 78 66 95 0 19 -24 -3
-53 -47z"/>
<path d="M3170 2098 c-10 -18 -17 -35 -14 -38 7 -6 54 47 54 61 0 20 -21 8
-40 -23z"/>
<path d="M3243 2118 c-24 -32 -24 -41 0 -19 15 14 27 26 27 28 0 8 -19 2 -27
-9z"/>
<path d="M3955 1419 c-4 -5 -4 -13 -1 -16 3 -4 6 0 6 8 0 11 2 11 10 -1 6 -9
10 -10 10 -3 0 17 -17 25 -25 12z"/>
<path d="M5022 1390 c-18 -29 -15 -38 4 -12 9 13 14 25 12 27 -2 2 -9 -5 -16
-15z"/>
<path d="M4286 1111 c-7 -11 20 -24 59 -27 l30 -2 -35 19 c-40 21 -47 22 -54
10z"/>
<path d="M4650 1099 c-12 -9 -11 -10 5 -5 17 5 16 3 -5 -14 l-25 -21 33 16
c18 9 30 20 27 25 -8 13 -16 12 -35 -1z"/>
<path d="M4434 909 c-8 -14 18 -31 30 -19 9 9 0 30 -14 30 -5 0 -12 -5 -16
-11z"/>
<path d="M4425 760 c-3 -5 -1 -10 4 -10 6 0 11 5 11 10 0 6 -2 10 -4 10 -3 0
-8 -4 -11 -10z"/>
</g>
</svg>
